<svg xmlns="http://www.w3.org/2000/svg" width="130" height="51" fill="none"><path fill="#fff" fill-opacity=".93" fill-rule="evenodd" d="M29.259 15.35v19.3c5.067 0 9.345-4.48 9.345-9.703 0-5.223-4.158-9.581-9.345-9.581M14.786 24.947c0 5.239 4.278 9.703 9.345 9.703V15.366c-5.172 0-9.345 4.282-9.345 9.581Z" clip-rule="evenodd"/><path fill="#fff" fill-opacity=".93" fill-rule="evenodd" d="M67.176 39.037h-6.14l-8.63-12.374v12.374h-5.143V10.811h5.142v12.223l8.63-12.223h6.141L56.713 24.674l10.463 14.363Zm-37.918.699h-5.142c-7.87 0-14.473-6.499-14.473-14.668S16.127 10.28 24.116 10.28h5.142c7.99 0 14.473 6.575 14.473 14.79 0 8.214-6.603 14.667-14.473 14.667ZM74.39 0H2.444C1.103 0 0 1.108 0 2.475V47.54c0 1.352 1.103 2.475 2.444 2.475H74.39c1.341 0 2.43-1.108 2.43-2.475V2.475C76.82 1.108 75.732 0 74.39 0Z" clip-rule="evenodd"/><path fill="#fff" fill-opacity=".93" d="M89.623 22.275a5.368 5.368 0 0 1-2.772-.76 5.675 5.675 0 0 1-2.042-2.05 5.49 5.49 0 0 1-.76-2.823c0-1.018.253-1.99.745-2.855a5.676 5.676 0 0 1 2.027-2.065 5.42 5.42 0 0 1 2.787-.76h1.968a5.46 5.46 0 0 1 2.787.76c.85.501 1.535 1.2 2.027 2.065.492.865.745 1.822.745 2.855a5.634 5.634 0 0 1-2.772 4.874c-.85.5-1.774.759-2.772.759h-1.968Zm1.968-9.353v7.41c.64 0 1.222-.168 1.773-.517.552-.35.984-.805 1.312-1.367a3.648 3.648 0 0 0 .492-1.837c0-.653-.164-1.29-.477-1.852a3.497 3.497 0 0 0-1.312-1.336 3.376 3.376 0 0 0-1.788-.486m-1.968-.015c-.64 0-1.252.167-1.803.486a3.722 3.722 0 0 0-1.312 1.336 3.762 3.762 0 0 0-.477 1.852c0 .486.09.972.283 1.412.194.456.448.85.775 1.2.328.349.716.622 1.148.82.432.197.894.288 1.371.288v-7.41l.015.016Zm20.032 3.72a5.624 5.624 0 0 1-.745 2.824 5.52 5.52 0 0 1-2.027 2.05c-.85.5-1.774.759-2.757.759a5.357 5.357 0 0 1-2.758-.76 5.526 5.526 0 0 1-2.027-2.05c-.507-.865-.745-1.806-.745-2.823 0-1.018.253-1.99.745-2.855a5.641 5.641 0 0 1 2.012-2.065 5.37 5.37 0 0 1 2.773-.76c.998 0 1.922.259 2.772.76.85.501 1.52 1.2 2.027 2.065.492.865.745 1.822.745 2.855m-9.122-.03c0 .652.164 1.26.492 1.837.328.576.76 1.032 1.312 1.366a3.34 3.34 0 0 0 1.774.501c.641 0 1.222-.167 1.773-.516.552-.35.984-.805 1.312-1.367a3.647 3.647 0 0 0 .492-1.837c0-.653-.164-1.29-.477-1.852a3.722 3.722 0 0 0-1.297-1.352 3.375 3.375 0 0 0-1.788-.486 3.482 3.482 0 0 0-3.086 1.838 3.762 3.762 0 0 0-.477 1.852m10.97-5.42h1.968v4.342h3.89v-4.343h1.967v10.842h-1.967v-4.555h-3.89v4.555h-1.968V11.176Zm9.867 8.882 2.534-8.898h5.336v8.898H130v1.944h-9.241v-1.944h.656Zm5.903 0v-6.939h-1.908l-1.923 6.939h3.831Zm-40.631 8.184h1.967v4.692l3.31-4.692h2.37l-4.025 5.33 4.024 5.511h-2.37l-3.309-4.752v4.752h-1.967V28.242Zm17.752 0v10.841h-1.968v-7.895l-4.546 7.895H95.75V28.242h1.968v7.926l4.516-7.926h2.221-.015Zm2.355 0h1.967v4.342h3.89v-4.342h1.968v10.841h-1.968v-4.555h-3.89v4.555h-1.967V28.242Zm20.807 5.466a5.634 5.634 0 0 1-.745 2.824 5.635 5.635 0 0 1-2.028 2.05 5.336 5.336 0 0 1-2.757.744 5.512 5.512 0 0 1-4.784-2.794 5.49 5.49 0 0 1-.761-2.824c0-1.017.254-1.974.746-2.854a5.635 5.635 0 0 1 2.012-2.065 5.38 5.38 0 0 1 2.787-.76c1.014 0 1.923.259 2.772.76.85.5 1.521 1.2 2.027 2.065.492.865.746 1.822.746 2.854m-9.122-.045c0 .653.164 1.275.492 1.837.328.577.76 1.032 1.311 1.366a3.341 3.341 0 0 0 1.774.501c.641 0 1.222-.167 1.774-.516.551-.334.983-.79 1.311-1.366a3.647 3.647 0 0 0 .492-1.838 3.727 3.727 0 0 0-1.773-3.204 3.522 3.522 0 0 0-1.789-.485 3.482 3.482 0 0 0-3.085 1.837 3.762 3.762 0 0 0-.477 1.852"/></svg>