<svg xmlns="http://www.w3.org/2000/svg" width="243" height="50" fill="none"><path fill="#fff" d="M62.735 22.803c.05.428.13 1.1.646 1.267.348.11.655.11.776.11.06 0 .097.012.097.058 0 .071-.11.109-.252.109h-1.217c-.31 0-.608.012-.776 0-.273-.025-.37-.05-.37-.143 0-.046.085-.071.143-.084.06-.012.047-.26.026-.474l-.575-6.16h-.038l-2.924 6.206c-.252.525-.286.634-.395.634-.084 0-.142-.117-.369-.55-.31-.583-1.338-2.647-1.397-2.769-.11-.214-1.444-3.08-1.578-3.403h-.046l-.478 5.539c-.013.193-.013.407-.013.608 0 .18.13.336.31.37.202.05.382.058.454.058.046 0 .096.025.096.059 0 .084-.071.109-.214.109-.44 0-1.015-.038-1.112-.038-.109 0-.68.038-1.002.038-.122 0-.202-.025-.202-.11 0-.037.059-.058.118-.058.096 0 .18 0 .356-.034.395-.07.428-.537.479-.99l.86-7.783c.025-.13.059-.214.13-.214.071 0 .121.046.18.18l3.65 7.511 3.508-7.498c.047-.109.097-.189.18-.189.085 0 .122.097.143.323l.798 7.33.008-.012Zm3.654 1.468c-.058.395.13.441.286.19l.142-.19.99-1.275c1.482-1.934 3.043-3.81 4.62-5.648.11-.13.168-.058.168.084v3.45c0 1.145 0 2.089-.059 2.588-.046.344-.109.608-.348.655a1.73 1.73 0 0 1-.356.046c-.072 0-.097.038-.097.071 0 .071.059.096.193.096.357 0 1.112-.037 1.17-.037.06 0 .81.038 1.47.038.13 0 .192-.038.192-.097 0-.034-.025-.071-.096-.071-.11 0-.37-.026-.537-.046-.357-.047-.428-.31-.466-.655-.059-.503-.059-1.443-.059-2.589v-5.396c.059-.394-.13-.44-.285-.188a160.1 160.1 0 0 1-5.811 7.124c-.046.059-.11.046-.11-.046 0-3.94 0-5.79.026-6.172.025-.415.117-.621.44-.68.143-.02.214-.033.298-.033.046 0 .097-.026.097-.072 0-.071-.06-.096-.19-.096-.356 0-1.111.038-1.17.038-.059 0-.81-.038-1.347-.038-.13 0-.193.025-.193.096 0 .046.046.072.097.072.109 0 .31.012.407.033.394.084.49.277.512.68.025.382 0 .717.025 2.58v5.493l-.008-.005Zm18.672-5.492c0-1.863 0-2.194.025-2.58.025-.416.122-.621.44-.68.143-.021.215-.034.299-.034.046 0 .096-.025.096-.07 0-.072-.059-.097-.193-.097-.357 0-1.112.037-1.17.037-.06 0-.81-.037-1.348-.037-.13 0-.192.025-.192.096 0 .046.046.071.096.071.11 0 .31.013.407.034.394.084.49.277.512.68.025.381.025.847.025 2.71v.252c0 .059-.034.071-.071.071h-5.06c-.034 0-.072-.012-.072-.071v-.252c0-1.863 0-2.328.025-2.71.026-.416.118-.621.441-.68.143-.021.214-.034.298-.034.046 0 .096-.025.096-.07 0-.072-.058-.097-.188-.097-.357 0-1.112.037-1.171.037-.059 0-.81-.037-1.347-.037-.13 0-.193.025-.193.096 0 .046.046.071.097.071.109 0 .31.013.407.034.394.084.486.277.512.68.025.381.025.717.025 2.58v2.102c0 1.146 0 2.09-.06 2.589-.045.344-.108.608-.347.655-.11.025-.252.046-.357.046-.071 0-.097.038-.097.071 0 .071.06.096.194.096.356 0 1.111-.037 1.17-.037.059 0 .814.038 1.469.038.13 0 .193-.038.193-.097 0-.034-.026-.071-.097-.071-.109 0-.369-.026-.537-.046-.357-.047-.428-.31-.466-.655-.058-.503-.058-1.443-.058-2.589v-1.12c0-.059.037-.071.071-.071h5.06c.038 0 .072.025.072.07v1.121c0 1.146 0 2.09-.06 2.589-.045.344-.104.608-.343.655-.11.025-.252.046-.357.046-.071 0-.097.038-.097.071 0 .071.06.096.194.096.356 0 1.111-.037 1.17-.037.059 0 .814.038 1.469.038.13 0 .193-.038.193-.097 0-.034-.026-.071-.097-.071-.109 0-.37-.026-.537-.046-.356-.047-.432-.31-.466-.655-.058-.503-.058-1.443-.058-2.589V18.78h-.017Zm4.25 5.492c-.059.395.13.441.285.19l.143-.19.99-1.275c1.481-1.934 3.046-3.81 4.62-5.648.105-.13.168-.058.168.084v3.45c0 1.145 0 2.089-.059 2.588-.046.344-.105.608-.344.655-.11.025-.252.046-.357.046-.071 0-.096.038-.096.071 0 .071.059.096.193.096.356 0 1.108-.037 1.17-.037.063 0 .81.038 1.469.038.13 0 .189-.038.189-.097 0-.034-.025-.071-.097-.071-.109 0-.369-.026-.537-.046-.356-.047-.428-.31-.466-.655-.058-.503-.058-1.443-.058-2.589v-5.396c.058-.394-.13-.44-.285-.188a163.147 163.147 0 0 1-5.812 7.124c-.046.059-.109.046-.109-.046 0-3.94 0-5.79.025-6.172.026-.415.122-.621.44-.68.144-.02.215-.033.299-.033.046 0 .096-.026.096-.072 0-.071-.058-.096-.188-.096-.357 0-1.112.038-1.171.038-.059 0-.81-.038-1.351-.038-.13 0-.193.025-.193.096 0 .046.046.072.096.072.11 0 .31.012.407.033.395.084.491.277.512.68.025.382 0 .717.025 2.58v5.493l-.004-.005Zm9.68-4.581c0 2.756 1.741 4.82 5.383 4.82.764 0 1.67-.083 2.148-.272.214-.097.24-.122.311-.348.122-.407.264-1.444.264-1.528 0-.096-.025-.18-.084-.18-.071 0-.096.046-.117.18-.038.214-.189.739-.441 1.003-.478.491-1.183.596-2.077.596-2.555 0-4.309-2.09-4.309-4.368 0-2.115.751-3.986 3.818-3.986 1.494 0 2.887.504 2.887 1.897 0 .167.013.251.097.251.096 0 .121-.18.121-.75 0-.693.084-1.264.084-1.398 0-.071-.025-.13-.155-.13-.453 0-1.527-.323-2.95-.323-3.797 0-4.976 2.627-4.976 4.536m13.934-3.856 1.502.025c1.146.025 1.423.298 1.469.654l.013.13c.012.168.037.202.096.202.046 0 .084-.046.084-.155 0-.13.034-.957.034-1.314 0-.071 0-.142-.059-.142-.097 0-.42.121-1.183.121h-4.477c-.143 0-.596-.025-.944-.058-.323-.026-.441-.143-.525-.143-.046 0-.096.155-.117.226-.025.097-.26 1.125-.26 1.242 0 .072.025.11.058.11.046 0 .084-.026.118-.122.033-.084.071-.168.201-.37.193-.285.478-.369 1.217-.381l1.766-.025v5.047c0 1.146 0 2.09-.058 2.589-.047.344-.109.608-.344.655a1.769 1.769 0 0 1-.357.046c-.071 0-.097.038-.097.071 0 .071.059.096.193.096.357 0 1.112-.037 1.171-.037.059 0 .81.038 1.469.038.13 0 .188-.038.188-.097 0-.034-.025-.071-.096-.071-.109 0-.369-.026-.537-.046-.357-.047-.428-.31-.466-.655-.059-.503-.059-1.443-.059-2.589v-5.047Zm6.709.071c0-.084.026-.105.072-.105.239 0 1.313.034 1.384.034.705 0 .991.239 1.062.394.071.155.109.357.109.453 0 .084.025.13.084.13.059 0 .084-.058.096-.117.026-.143.047-.667.059-.789.038-.336.097-.478.097-.562 0-.059-.025-.13-.072-.13-.046 0-.096.05-.167.071a5.2 5.2 0 0 1-.525.046c-.189.013-1.41.025-2.698.025-.059 0-.81-.037-1.347-.037-.13 0-.193.025-.193.096 0 .046.046.071.097.071.109 0 .31.013.407.034.394.084.466.264.499.55.025.201.038.704.038 2.71v2.102c0 1.456-.025 2.421-.084 2.736-.071.344-.13.453-.323.512a1.322 1.322 0 0 1-.357.046c-.071 0-.096.038-.096.071 0 .072.058.097.193.097.264 0 .86-.038 1.17-.038.349 0 1.146.071 2.95.071.466 0 .562 0 .642-.31.059-.252.155-1.062.155-1.158 0-.084 0-.18-.071-.18-.059 0-.084.05-.109.18-.084.49-.227.73-.537.86-.311.13-.835.13-1.146.13-1.17 0-1.384-.189-1.384-.978v-3.092c0-.046.025-.084.084-.084.201 0 1.384.021 1.707.059.466.046.575.252.621.42.046.155.046.272.046.394 0 .059.026.105.084.105.072 0 .084-.097.084-.227 0-.587.143-1.384.143-1.435 0-.071-.025-.096-.059-.096-.05 0-.096.058-.18.155-.109.122-.273.143-.562.168-.277.025-1.742.025-1.897.025-.059 0-.071-.038-.071-.122v-3.293l-.005.008Zm6.282 4.976c0 1.146 0 2.09-.059 2.589-.046.344-.109.608-.344.655a1.769 1.769 0 0 1-.357.046c-.071 0-.096.038-.096.071 0 .071.058.096.193.096.356 0 1.112-.037 1.145-.037.059 0 .81.038 1.469.038.13 0 .193-.038.193-.097 0-.034-.026-.071-.097-.071-.109 0-.369-.026-.537-.046-.357-.047-.428-.31-.466-.655-.058-.503-.058-1.443-.058-2.589v-4.905c0-.121.025-.201.096-.226.109-.046.311-.072.512-.072.277 0 1.003-.046 1.636.596.634.646.668 1.444.668 1.838 0 1.1-.907 1.947-2.065 1.947-.252 0-.323.012-.323.109 0 .059.071.084.13.084.059.012.193.012.252.012 1.695 0 2.937-1.145 2.937-2.84a2.07 2.07 0 0 0-.596-1.418c-.189-.18-.726-.68-2.219-.68-.55 0-1.242.038-1.503.038-.096 0-.814-.038-1.346-.038-.13 0-.193.025-.193.096 0 .047.046.072.096.072.109 0 .311.012.407.033.395.084.491.277.512.68.025.382.025.717.025 2.58v2.103l-.012-.009Zm6.302-1.191c0 2.756 1.741 4.82 5.383 4.82.764 0 1.67-.083 2.148-.272.214-.097.239-.122.311-.348.121-.407.264-1.444.264-1.528 0-.096-.025-.18-.084-.18-.071 0-.096.046-.122.18-.033.214-.193.739-.44 1.003-.478.491-1.183.596-2.077.596-2.555 0-4.309-2.09-4.309-4.368 0-2.115.751-3.986 3.818-3.986 1.49 0 2.887.504 2.887 1.897 0 .167.012.251.096.251.097 0 .122-.18.122-.75 0-.693.084-1.264.084-1.398 0-.071-.025-.13-.155-.13-.454 0-1.528-.323-2.95-.323-3.793 0-4.976 2.627-4.976 4.536Zm13.51-3.856 1.502.025c1.146.025 1.418.298 1.469.654l.012.13c.013.168.038.202.097.202.05 0 .084-.046.084-.155 0-.13.033-.957.033-1.314 0-.071 0-.142-.058-.142-.097 0-.42.121-1.184.121h-4.476c-.143 0-.596-.025-.945-.058-.323-.026-.44-.143-.524-.143-.046 0-.097.155-.118.226-.025.097-.264 1.125-.264 1.242 0 .072.025.11.059.11.046 0 .084-.026.122-.122.033-.084.071-.168.201-.37.193-.285.478-.369 1.217-.381l1.766-.025v5.047c0 1.146 0 2.09-.059 2.589-.046.344-.109.608-.344.655a1.76 1.76 0 0 1-.356.046c-.072 0-.097.038-.097.071 0 .071.059.096.189.096.361 0 1.112-.037 1.171-.037.058 0 .814.038 1.468.038.13 0 .189-.038.189-.097 0-.034-.025-.071-.096-.071-.11 0-.37-.026-.538-.046-.356-.047-.428-.31-.465-.655-.059-.503-.059-1.443-.059-2.589v-5.047h.004Zm10.838 5.945c0 1.276-1.003 2.602-3.042 2.602-.277 0-1.494-.072-1.586-.072-.059 0-.814.038-1.171.038-.13 0-.193-.025-.193-.097 0-.033.026-.07.097-.07.109 0 .252-.014.356-.047.194-.059.252-.168.324-.512.058-.31.083-1.275.083-2.736v-2.102c0-2.005-.012-2.509-.033-2.71-.038-.286-.109-.466-.504-.55a2.532 2.532 0 0 0-.407-.033c-.046 0-.096-.026-.096-.072 0-.071.059-.096.193-.096.537 0 1.288.038 1.347.038.285 0 .751-.038 1.3-.038 1.96 0 2.388 1.191 2.388 1.791 0 .978-.562 1.565-1.12 2.149.885.272 2.064 1.12 2.064 2.517Zm-4.179-2.731c0 .084.025.109.084.13.071.012.285.05.73.05.667 0 .835-.025 1.087-.31.251-.286.428-.718.428-1.205 0-.99-.441-2.051-1.612-2.051-.13 0-.381.012-.574.058-.11.025-.143.06-.143.13v3.198Zm3.151 3.26c0-.718-.239-1.78-1.158-2.413-.466-.31-.848-.36-1.276-.36-.704 0-.717.012-.717.096v2.9c0 .893.046 1.111.42 1.287.323.155.834.18 1.048.18.647 0 1.683-.348 1.683-1.694v.004Zm11.706-2.673c0 2.673-1.884 4.884-4.762 4.884-3.269 0-4.632-2.543-4.632-4.691 0-1.934 1.41-4.666 4.703-4.666 2.686 0 4.691 1.695 4.691 4.477v-.004Zm-1.145.336c0-2.866-1.741-4.402-3.63-4.402-1.993 0-3.486 1.314-3.486 3.928 0 2.781 1.67 4.573 3.818 4.573 1.074 0 3.294-.621 3.294-4.095l.004-.004Zm7.917.919c0 1.145 0 2.09-.058 2.588-.047.344-.105.609-.345.655a1.76 1.76 0 0 1-.356.046c-.071 0-.097.038-.097.071 0 .072.059.097.193.097.357 0 1.049-.038 1.146-.038.096 0 .789.038 1.372.038.13 0 .189-.038.189-.097 0-.033-.021-.07-.097-.07-.109 0-.298-.026-.466-.047-.356-.046-.428-.31-.465-.655-.084-.688-.059-1.372-.059-2.588v-1.171h.059c.575.705 3.105 3.436 3.642 3.877.512.407.809.667 1.443.73.264.025.491.025.822.025h.609c.201 0 .264-.038.264-.096 0-.046-.071-.072-.155-.072s-.428-.025-.743-.155c-.57-.24-.776-.432-1.779-1.36-.491-.453-2.97-3.02-3.281-3.364.252-.298 2.329-2.33 2.627-2.614.537-.512.801-.81 1.288-1.028.239-.11.486-.168.667-.168.096 0 .122-.025.122-.084 0-.059-.051-.084-.181-.084-.298 0-1.087.038-1.145.038-.286 0-.655-.038-.894-.038-.084 0-.143.025-.143.084 0 .046.046.071.109.096.097.034.156.105.156.252 0 .202-.311.512-.646.86-.433.466-2.589 2.66-2.795 2.887h-.05v-.717c0-1.864 0-2.195.025-2.58.025-.416.122-.622.44-.68.143-.022.214-.034.298-.034.047 0 .097-.025.097-.072 0-.07-.059-.096-.193-.096-.357 0-1.049.038-1.158.038-.072 0-.776-.038-1.309-.038-.13 0-.193.025-.193.096 0 .047.046.072.096.072.109 0 .311.012.407.033.395.084.491.277.512.68.025.382.025.717.025 2.58v2.103Zm12.504 2.542c-.323.835-.583 1.41-1.171 1.41-.466 0-.814-.55-.814-1.183 0-.18 0-.227-.084-.227-.025 0-.058 0-.084.118a10.348 10.348 0 0 0-.071 1.493c0 .143.059.227.18.298.227.13.634.202.823.202.633 0 1.204-.621 1.624-1.65l2.924-7.136c.336-.823.537-1.016.705-1.12.227-.143.491-.143.575-.143.096 0 .142-.025.142-.084.013-.059-.058-.084-.193-.084-.344 0-.86.038-.931.038-.143 0-.692-.038-1.171-.038-.193 0-.264.025-.277.096 0 .06.059.072.135.072.13 0 .31 0 .453.046.121.059.142.18.142.273l-.18.562c-.31.944-1.624 4.355-2.291 6.025l-2.685-5.694c-.193-.407-.298-.776-.298-.918 0-.084.021-.18.155-.24.109-.046.323-.058.453-.058.084 0 .118-.026.118-.084 0-.06-.109-.084-.323-.084-.453 0-.99.038-1.112.038-.143 0-.823-.038-1.397-.038-.189 0-.311.012-.311.084 0 .046.025.084.097.084.071 0 .272 0 .453.046.415.121.537.273.86.919l3.545 6.969.009.008Zm6.398-3.117 1.049-3.223c.059-.18.118-.18.181 0l1.133 3.223.214.583 1.112 2.937c.071.193-.001.298-.072.323-.046.013-.084.038-.084.084 0 .071.13.071.357.084a66.07 66.07 0 0 0 1.875.025c.13 0 .24-.025.24-.096 0-.06-.047-.072-.118-.072-.122 0-.298-.012-.478-.071-.252-.071-.6-.26-1.028-1.326-.73-1.817-2.602-6.743-2.782-7.2-.143-.37-.193-.428-.26-.428s-.122.071-.264.466l-2.711 7.414c-.214.596-.453 1.049-1.003 1.12-.096.013-.26.025-.348.025-.059 0-.105.026-.105.072 0 .07.071.096.227.096.558 0 1.216-.038 1.347-.038.13 0 .641.038.931.038.109 0 .18-.025.18-.096 0-.046-.033-.072-.117-.072h-.122c-.201 0-.453-.109-.453-.348 0-.214.059-.5.168-.797l.931-2.723Zm12.844 1.468c0 1.276-1.003 2.602-3.042 2.602-.273 0-1.494-.072-1.59-.072-.059 0-.81.038-1.171.038-.13 0-.189-.025-.189-.096 0-.034.021-.072.097-.072.109 0 .251-.025.356-.046.239-.046.298-.31.344-.654.059-.504.059-1.444.059-2.59v-2.101l-.025-2.58c-.013-.403-.201-.61-.466-.668a1.662 1.662 0 0 0-.369-.046c-.05 0-.097-.025-.097-.071 0-.072.059-.097.193-.097.395 0 1.146.038 1.205.038.058 0 .814-.038 1.17-.038.13 0 .193.025.193.097 0 .046-.046.071-.096.071-.084 0-.155.013-.298.034-.323.058-.416.264-.441.68l-.012 2.84c0 .084.025.109.084.13.071.013.285.05.73.05 1.263 0 3.365.357 3.365 2.556v-.005Zm-1.028.525c0-.718-.239-1.78-1.158-2.413-.68-.466-1.087-.348-1.825-.348-.131 0-.168.096-.168.18v.588c0 .919 0 2.4.012 2.576.034.583.034.751.403.931.323.156.835.18 1.049.18.646 0 1.683-.347 1.683-1.694h.004Zm5.798-6.47 1.507.025c1.145.025 1.418.298 1.468.655l.013.13c.012.168.033.201.096.201.046 0 .084-.046.084-.155 0-.13.034-.957.034-1.313 0-.072 0-.143-.059-.143-.096 0-.42.122-1.183.122h-4.477c-.143 0-.596-.026-.944-.06-.323-.024-.441-.142-.525-.142-.046 0-.096.155-.121.227-.025.096-.26 1.124-.26 1.242 0 .071.025.109.058.109.051 0 .084-.025.122-.122.034-.084.071-.168.201-.37.193-.284.479-.368 1.217-.381l1.767-.025v5.047c0 1.146 0 2.09-.059 2.59-.046.343-.105.608-.344.654a1.771 1.771 0 0 1-.361.046c-.071 0-.097.038-.097.071 0 .072.059.097.189.097.361 0 1.112-.038 1.171-.038.059 0 .81.038 1.468.038.13 0 .193-.038.193-.097 0-.033-.025-.071-.096-.071-.109 0-.369-.025-.537-.046-.357-.046-.428-.31-.466-.655-.059-.503-.059-1.443-.059-2.589v-5.047Zm8.812 7.59c-.324.835-.584 1.41-1.171 1.41-.466 0-.81-.55-.81-1.183 0-.18 0-.227-.084-.227-.025 0-.059 0-.084.117a10.348 10.348 0 0 0-.071 1.494c0 .143.059.227.18.298.227.13.634.201.823.201.633 0 1.204-.62 1.624-1.648l2.924-7.137c.331-.823.537-1.016.705-1.12.226-.143.491-.143.575-.143.096 0 .142-.026.142-.084.013-.06-.058-.084-.193-.084-.344 0-.86.038-.931.038-.143 0-.692-.038-1.171-.038-.188 0-.26.025-.272.096 0 .059.058.072.13.072.13 0 .31 0 .453.046.121.059.142.18.142.273l-.18.562c-.31.944-1.624 4.355-2.291 6.025l-2.685-5.694c-.193-.407-.298-.776-.298-.919 0-.084.021-.18.155-.239.105-.046.323-.059.453-.059.084 0 .122-.025.122-.083 0-.06-.109-.084-.323-.084-.453 0-.99.037-1.108.037-.142 0-.822-.037-1.397-.037-.193 0-.31.012-.31.084 0 .046.025.083.096.083.071 0 .277 0 .453.046.42.122.537.273.86.92l3.546 6.969-.004.008Zm6.591-2.543c0 1.146 0 2.09-.059 2.59-.046.343-.109.608-.348.654a1.732 1.732 0 0 1-.356.046c-.072 0-.097.038-.097.071 0 .072.059.097.193.097.357 0 1.108-.038 1.145-.038.059 0 .814.038 1.469.038.13 0 .193-.038.193-.097 0-.033-.025-.071-.096-.071-.11 0-.37-.025-.538-.046-.356-.046-.428-.31-.465-.655-.059-.503-.059-1.443-.059-2.589V15.98c0-.121.025-.2.097-.226.109-.046.31-.071.516-.071.272 0 1.002-.047 1.632.595.633.646.667 1.444.667 1.838 0 1.1-.906 1.947-2.064 1.947-.252 0-.324.013-.324.11 0 .058.072.083.135.083.058.013.193.013.251.013 1.696 0 2.938-1.146 2.938-2.841 0-.634-.336-1.17-.6-1.418-.193-.18-.726-.68-2.22-.68-.55 0-1.242.038-1.506.038-.097 0-.81-.038-1.347-.038-.13 0-.189.025-.189.097 0 .046.046.071.097.071.104 0 .31.013.402.034.395.084.491.277.512.68.025.381.025.717.025 2.58v2.102l-.004-.009Zm12.797.894c0 1.276-1.002 2.602-3.042 2.602-.272 0-1.489-.072-1.586-.072-.058 0-.809.038-1.17.038-.13 0-.193-.025-.193-.097 0-.033.025-.07.096-.07.109 0 .252-.026.357-.047.239-.046.298-.31.344-.655.059-.503.059-1.443.059-2.588v-2.102c0-1.864 0-1.826-.025-2.58-.009-.404-.202-.61-.466-.668a1.662 1.662 0 0 0-.369-.046c-.047 0-.097-.025-.097-.072 0-.07.059-.096.193-.096.394 0 1.146.038 1.204.038.059 0 .81-.038 1.171-.038.13 0 .189.025.189.096 0 .047-.046.072-.097.072-.084 0-.155.012-.298.033-.323.06-.419.265-.44.68l-.013 2.84c0 .084.021.11.084.13.071.013.285.051.73.051h.382c1.624 0 2.983.931 2.983 2.555l.004-.004Zm-1.028.525c0-1.087-.608-2.686-2.471-2.686-.608 0-.692.11-.68.42v.277c0 .919 0 2.4.013 2.576.038.583.038.751.407.931.323.156.835.18 1.049.18.646 0 1.682-.347 1.682-1.694v-.004Zm3.915-3.52c0-1.864 0-2.195.025-2.581.025-.415.122-.621.441-.68.142-.02.214-.033.298-.033.046 0 .096-.026.096-.072 0-.071-.059-.096-.193-.096-.361 0-1.107.038-1.17.038-.063 0-.81-.038-1.205-.038-.13 0-.188.025-.188.096 0 .046.046.072.096.072.084 0 .239.012.369.046.26.059.382.264.403.667.025.382.025.717.025 2.58v2.102c0 1.146 0 2.09-.058 2.59-.047.343-.11.608-.349.654a1.689 1.689 0 0 1-.356.046c-.072 0-.097.038-.097.071 0 .072.059.097.193.097.357 0 1.108-.038 1.171-.038.063 0 .81.038 1.468.038.13 0 .193-.038.193-.097 0-.033-.025-.071-.096-.071-.109 0-.369-.025-.537-.046-.361-.046-.432-.31-.466-.655-.059-.503-.059-1.443-.059-2.589v-2.102h-.004ZM53.651 36.048c0 1.145 0 2.09-.059 2.593-.046.344-.109.608-.348.659a1.737 1.737 0 0 1-.357.046c-.07 0-.096.038-.096.071 0 .072.059.097.193.097.357 0 1.112-.038 1.145-.038.06 0 .814.038 1.469.038.13 0 .193-.038.193-.097 0-.033-.025-.071-.097-.071-.105 0-.369-.021-.537-.046-.356-.05-.432-.31-.465-.659-.06-.504-.06-1.443-.06-2.593v-4.91c0-.117.026-.2.097-.226.11-.046.31-.071.512-.071.277 0 1.003-.046 1.637.596.633.646.667 1.447.667 1.842 0 1.1-.907 1.947-2.065 1.947-.251 0-.323.012-.323.109 0 .059.072.084.13.084.06.012.193.012.252.012 1.695 0 2.937-1.145 2.937-2.845a2.07 2.07 0 0 0-.596-1.418c-.193-.18-.73-.68-2.22-.68-.549 0-1.241.038-1.501.038-.097 0-.814-.037-1.351-.037-.13 0-.193.025-.193.096 0 .046.05.071.096.071.105 0 .31.013.407.038.395.084.487.273.512.68.025.382.025.717.025 2.58v2.102l-.004-.008Zm15.7-1.255c0 2.673-1.887 4.884-4.766 4.884-3.272 0-4.632-2.542-4.632-4.695 0-1.934 1.41-4.665 4.704-4.665 2.685 0 4.695 1.695 4.695 4.476Zm-1.145.336c0-2.866-1.74-4.406-3.63-4.406-1.992 0-3.486 1.314-3.486 3.928 0 2.782 1.67 4.573 3.823 4.573 1.074 0 3.297-.62 3.297-4.095h-.004Zm3.009-.277c0 2.761 1.745 4.825 5.387 4.825.764 0 1.67-.084 2.148-.272.214-.097.24-.122.31-.349.118-.407.265-1.447.265-1.527 0-.096-.025-.18-.084-.18-.071 0-.096.046-.121.18-.038.214-.193.739-.441 1.003-.478.49-1.183.6-2.077.6-2.555 0-4.313-2.09-4.313-4.372 0-2.115.75-3.986 3.822-3.986 1.494 0 2.891.5 2.891 1.9 0 .168.013.252.097.252.096 0 .121-.18.121-.75 0-.697.084-1.268.084-1.398 0-.071-.02-.13-.155-.13-.453 0-1.527-.323-2.95-.323-3.797 0-4.98 2.627-4.98 4.536m9.613 0c0 2.76 1.74 4.825 5.383 4.825.763 0 1.674-.084 2.148-.273.214-.096.24-.122.31-.348.118-.407.265-1.448.265-1.528 0-.096-.025-.18-.084-.18-.072 0-.097.046-.118.18-.033.215-.193.739-.44 1.003-.479.491-1.183.6-2.077.6-2.555 0-4.31-2.09-4.31-4.372 0-2.114.752-3.986 3.823-3.986 1.494 0 2.891.5 2.891 1.901 0 .168.013.252.097.252.096 0 .117-.18.117-.751 0-.697.084-1.267.084-1.398 0-.07-.025-.13-.155-.13-.453 0-1.528-.323-2.95-.323-3.797 0-4.98 2.627-4.98 4.536m10.972 4.586c-.059.394.13.44.285.193l.143-.193.99-1.276c1.481-1.938 3.046-3.81 4.62-5.647.109-.13.167-.059.167.084v3.449c0 1.145 0 2.09-.058 2.593-.047.344-.11.608-.344.659-.11.025-.252.046-.357.046-.072 0-.097.038-.097.071 0 .071.06.096.193.096.357 0 1.112-.037 1.171-.037.059 0 .81.038 1.469.038.13 0 .193-.038.193-.097 0-.034-.026-.071-.097-.071-.11 0-.37-.021-.537-.046-.357-.05-.428-.31-.466-.66-.058-.503-.058-1.443-.058-2.592V30.67c.058-.394-.13-.44-.286-.189a165.863 165.863 0 0 1-5.815 7.129c-.046.059-.11.05-.11-.046 0-3.94 0-5.79.026-6.177.025-.42.122-.62.44-.68.143-.024.214-.037.298-.037.046 0 .097-.025.097-.071 0-.072-.059-.097-.189-.097-.357 0-1.112.038-1.17.038-.06 0-.815-.038-1.352-.038-.13 0-.193.025-.193.097 0 .046.046.071.097.071.105 0 .31.013.407.038.394.084.49.273.512.68.025.381 0 .717.025 2.58v5.492l-.004-.004Zm11.463 0c-.059.394.13.44.285.193l.143-.193c.356-.453.679-.885.99-1.276 1.481-1.938 3.046-3.81 4.619-5.647.11-.13.168-.059.168.084v3.449c0 1.145 0 2.09-.058 2.593-.047.344-.11.608-.345.659a1.768 1.768 0 0 1-.36.046c-.072 0-.097.038-.097.071 0 .071.059.096.193.096.357 0 1.112-.037 1.171-.037.058 0 .814.038 1.468.038.13 0 .193-.038.193-.097 0-.034-.021-.071-.096-.071a4.82 4.82 0 0 1-.537-.046c-.357-.05-.428-.31-.466-.66-.059-.503-.059-1.443-.059-2.592V30.67c.059-.394-.13-.44-.285-.189a162.681 162.681 0 0 1-5.815 7.129c-.047.059-.11.05-.11-.046 0-3.94 0-5.79.026-6.177.025-.42.121-.62.44-.68.143-.024.214-.037.298-.037.046 0 .097-.025.097-.071 0-.072-.059-.097-.189-.097-.361 0-1.112.038-1.171.038-.059 0-.81-.038-1.347-.038-.13 0-.193.025-.193.097 0 .046.051.071.097.071.105 0 .31.013.407.038.394.084.491.273.512.68.025.381 0 .717.025 2.58v5.492l-.004-.004Zm10.099-4.586c0 2.76 1.745 4.825 5.383 4.825.764 0 1.67-.084 2.148-.273.214-.096.24-.121.311-.348.122-.407.264-1.447.264-1.527 0-.097-.025-.18-.084-.18-.071 0-.096.046-.117.18-.038.214-.193.738-.441 1.003-.478.49-1.183.6-2.077.6-2.555 0-4.309-2.09-4.309-4.372 0-2.115.751-3.986 3.823-3.986 1.493 0 2.891.499 2.891 1.9 0 .168.012.252.096.252.097 0 .122-.18.122-.75 0-.697.084-1.268.084-1.398 0-.072-.021-.13-.156-.13-.453 0-1.527-.323-2.949-.323-3.797 0-4.981 2.626-4.981 4.535m10.972 1.196c0 1.146 0 2.09-.058 2.593-.051.344-.109.609-.349.659a1.724 1.724 0 0 1-.356.046c-.072 0-.097.038-.097.071 0 .072.059.097.189.097.357 0 1.049-.038 1.145-.038.097 0 .789.038 1.377.038.13 0 .193-.038.193-.097 0-.033-.025-.07-.097-.07-.109 0-.298-.022-.466-.047-.356-.05-.432-.31-.465-.659-.063-.503-.063-1.443-.063-2.593v-1.17h.063c.57.704 3.105 3.44 3.642 3.88.512.408.81.672 1.443.73.26.022.487.022.822.022h.609c.201 0 .26-.038.26-.097 0-.046-.071-.071-.155-.071s-.432-.021-.739-.155c-.575-.235-.776-.428-1.779-1.36-.486-.453-2.975-3.02-3.285-3.365.252-.298 2.329-2.328 2.627-2.614.537-.512.801-.814 1.292-1.028a1.79 1.79 0 0 1 .667-.168c.096 0 .122-.025.122-.084 0-.058-.047-.083-.181-.083-.298 0-1.087.037-1.145.037-.29 0-.659-.037-.898-.037-.084 0-.143.025-.143.084 0 .05.051.07.109.096.097.038.156.11.156.252 0 .201-.311.516-.647.86-.432.466-2.593 2.66-2.794 2.887h-.046v-.718c0-1.863 0-2.194.025-2.58.021-.42.122-.621.441-.68.142-.025.214-.038.297-.038.047 0 .097-.025.097-.071 0-.072-.059-.097-.193-.097-.357 0-1.049.038-1.158.038-.071 0-.776-.038-1.313-.038-.135 0-.193.026-.193.097 0 .046.046.071.096.071.109 0 .311.013.407.038.395.084.491.273.512.68.025.381.025.717.025 2.58v2.102h.004Zm17.014-1.254c0 2.672-1.888 4.884-4.766 4.884-3.273 0-4.632-2.543-4.632-4.696 0-1.934 1.41-4.665 4.703-4.665 2.686 0 4.695 1.695 4.695 4.477Zm-1.145.335c0-2.865-1.741-4.405-3.629-4.405-1.993 0-3.487 1.313-3.487 3.927 0 2.782 1.674 4.573 3.822 4.573 1.074 0 3.294-.62 3.294-4.095Zm3.696 4.31c-.058.394.13.44.286.192l.142-.193c.357-.453.68-.885.991-1.275 1.481-1.939 3.046-3.81 4.619-5.648.109-.13.168-.058.168.084v3.45c0 1.145 0 2.089-.059 2.592-.05.344-.109.609-.348.659a1.769 1.769 0 0 1-.357.046c-.071 0-.096.038-.096.071 0 .072.059.097.193.097.357 0 1.112-.038 1.17-.038.059 0 .814.038 1.469.038.134 0 .193-.038.193-.097 0-.033-.021-.07-.096-.07-.11 0-.37-.022-.538-.047-.36-.05-.432-.31-.465-.659-.059-.503-.059-1.443-.059-2.593v-5.396c.059-.394-.13-.44-.285-.188a162.592 162.592 0 0 1-5.816 7.128c-.05.059-.109.05-.109-.046 0-3.94 0-5.79.021-6.176.025-.42.122-.621.441-.68.142-.025.214-.038.298-.038.046 0 .096-.025.096-.07 0-.072-.059-.097-.193-.097-.356 0-1.112.037-1.17.037-.059 0-.814-.037-1.352-.037-.13 0-.193.025-.193.096 0 .046.051.071.097.071.109 0 .31.013.407.038.394.084.487.273.512.68.025.382 0 .717.025 2.58v5.493l.008-.005Zm19.473-.848-.025.038c.05.432-.021.944.466 1.015.168.025.432.05.537.05.071 0 .096.034.096.072 0 .058-.058.096-.193.096-.654 0-1.41-.038-1.468-.038-.059 0-.814.038-1.171.038-.13 0-.189-.025-.189-.096 0-.038.025-.072.097-.072.109 0 .252-.025.356-.05.361-.084.298-.596.382-1.015l-.025-.038c-2.832-.201-4.133-2.043-4.133-3.676 0-1.468 1.255-3.512 4.108-3.738l.025-.038c-.038-.344-.143-.717-.382-.776a1.461 1.461 0 0 0-.369-.046c-.046 0-.096-.025-.096-.072 0-.07.058-.096.193-.096.394 0 1.145.038 1.208.038.063 0 .814-.038 1.171-.038.13 0 .193.025.193.096 0 .05-.047.072-.097.072-.084 0-.155.012-.298.038-.298.058-.382.427-.415.784l.025.038c2.354.18 4.045 1.502 4.045 3.533 0 2.03-1.591 3.617-4.037 3.88h-.004Zm-1.087-6.63-.025-.394c.013-.084-.05-.084-.096-.071-1.708.214-2.996 1.35-2.996 3.273 0 1.921 1.301 3.117 2.975 3.461.058.025.121 0 .121-.105.026-.537.026-1.217.026-2.081v-4.082h-.005Zm1.075 6.294c.918-.025 2.983-.73 2.983-3.247 0-1.876-1.217-3.084-2.673-3.428-.096-.026-.18-.047-.239-.026-.084.038-.122.06-.13.361l-.013.202v3.927c0 .894-.012 1.624.025 2.16 0 .026.026.051.051.051h-.004Zm7.888-7.187c0-.084.025-.11.071-.11.239 0 1.313.038 1.385.038.704 0 .99.24 1.061.395.071.155.109.356.109.453 0 .084.025.13.084.13.059 0 .084-.059.097-.122.025-.142.05-.667.058-.784.038-.336.097-.479.097-.563 0-.058-.021-.13-.071-.13-.051 0-.097.047-.168.072a7.14 7.14 0 0 1-.525.046c-.193.013-1.41.025-2.702.025-.059 0-.81-.038-1.347-.038-.13 0-.189.026-.189.097 0 .046.047.071.097.071.105 0 .31.013.407.038.394.084.466.26.499.55.025.201.034.704.034 2.71v2.102c0 1.456-.021 2.425-.084 2.736-.071.348-.13.453-.323.516a1.184 1.184 0 0 1-.361.046c-.071 0-.096.038-.096.071 0 .072.058.097.188.097.265 0 .86-.038 1.171-.038.348 0 1.15.072 2.95.072.465 0 .562 0 .646-.311.059-.252.155-1.061.155-1.158 0-.084 0-.18-.071-.18-.059 0-.084.046-.105.18-.084.487-.227.726-.537.86-.311.13-.835.13-1.146.13-1.17 0-1.384-.189-1.384-.977v-3.093c0-.046.025-.084.084-.084.201 0 1.384.026 1.707.06.466.045.575.25.621.419.046.155.046.272.046.394 0 .059.026.11.084.11.072 0 .084-.097.084-.227 0-.588.143-1.385.143-1.435 0-.072-.021-.097-.059-.097-.05 0-.096.059-.18.155-.109.122-.273.143-.563.168-.272.025-1.741.025-1.896.025-.059 0-.071-.033-.071-.121v-3.298Zm14.547 7.913c-.072.37-.252 1.255-.277 1.385-.021.109-.047.155-.118.155-.059 0-.096-.034-.084-.201v-.13c0-.37-.038-.743-1.028-.743l-1.812-.013h-3.202l-2.052.013c-.809.012-.893.142-.977.432-.05.201-.025.407-.025.524 0 .097-.026.122-.072.122-.037 0-.071-.033-.096-.109-.059-.117-.239-1.288-.252-1.385 0-.07-.012-.226.038-.226.096 0 .285.155.608.142.634-.012.848-.31 1.049-.839l2.925-7.451c.142-.395.205-.466.272-.466.068 0 .122.059.286.428.193.453 2.161 5.396 2.916 7.238.13.272.285.562.474.801.273.252.608.285.743.277.369-.025.574-.097.646-.097.058 0 .05.072.038.143Zm-2.56-.033s-.013-.026-.013-.038l-2.651-6.768c-.059-.18-.193-.168-.252.013l-2.077 5.958c-.105.297-.168.587-.168.8v.039c1.301.084 3.093.071 5.157 0l.004-.005Zm5.744-7.88c0-.084.021-.11.071-.11.24 0 1.314.038 1.385.038.705 0 .99.24 1.066.395.071.155.105.356.105.453 0 .084.025.13.084.13.058 0 .084-.059.096-.122.025-.142.05-.667.059-.784.033-.336.096-.479.096-.563 0-.058-.021-.13-.071-.13-.05 0-.096.047-.168.072a6.836 6.836 0 0 1-.524.046c-.193.013-1.41.025-2.698.025-.059 0-.814-.038-1.351-.038-.13 0-.193.026-.193.097 0 .046.05.071.096.071.109 0 .311.013.407.038.395.084.466.26.5.55.025.201.037.704.037 2.71v2.102c0 1.456-.025 2.425-.084 2.736-.071.348-.13.453-.323.516a1.168 1.168 0 0 1-.356.046c-.072 0-.097.038-.097.071 0 .072.059.097.193.097.265 0 .86-.038 1.171-.038.348 0 1.145.072 2.949.072.466 0 .563 0 .647-.311.058-.252.155-1.061.155-1.158 0-.084 0-.18-.071-.18-.059 0-.084.046-.11.18-.083.487-.226.726-.537.86-.31.13-.835.13-1.149.13-1.171 0-1.385-.189-1.385-.977v-3.093c0-.046.021-.084.084-.084.206 0 1.385.026 1.708.06.465.045.575.25.621.419.046.155.046.272.046.394 0 .059.025.11.084.11.071 0 .084-.097.084-.227 0-.588.142-1.385.142-1.435 0-.072-.021-.097-.058-.097-.051 0-.097.059-.181.155-.109.122-.277.143-.562.168-.273.025-1.741.025-1.897.025-.058 0-.071-.033-.071-.121v-3.298Zm6.948 4.976c0 1.145 0 2.09-.058 2.593-.047.344-.105.608-.344.659-.11.025-.252.046-.357.046-.071 0-.097.038-.097.071 0 .072.059.097.193.097.357 0 1.108-.038 1.146-.038.059 0 .814.038 1.468.038.13 0 .189-.038.189-.097 0-.033-.025-.071-.096-.071a4.78 4.78 0 0 1-.537-.046c-.361-.05-.433-.31-.466-.659-.059-.503-.059-1.443-.059-2.593v-4.91c0-.117.025-.2.097-.226.109-.046.31-.071.512-.071.276 0 1.002-.046 1.636.596.634.646.671 1.447.671 1.842 0 1.1-.906 1.947-2.064 1.947-.252 0-.323.012-.323.109 0 .059.071.084.13.084.059.012.193.012.252.012 1.695 0 2.937-1.145 2.937-2.845a2.07 2.07 0 0 0-.596-1.418c-.193-.18-.73-.68-2.22-.68-.549 0-1.242.038-1.506.038-.096 0-.81-.037-1.347-.037-.13 0-.193.025-.193.096 0 .046.046.071.097.071.105 0 .31.013.402.038.399.084.491.273.517.68.021.382.021.717.021 2.58v2.102l-.005-.008Zm13.981 3.37c0 .07-.109.096-.239.096-.181 0-1.049 0-1.876-.021-.226-.013-.357-.013-.357-.084 0-.05.051-.084.084-.084.026 0 .097-.059.097-.168 0-.034 0-.109-.025-.155l-1.108-2.937c-.025-.046-.046-.072-.109-.072h-2.568c-.059 0-.096.034-.117.097l-.718 2.115c-.105.298-.168.583-.168.801 0 .24.252.348.453.348h.122c.084 0 .118.026.118.072 0 .071-.072.096-.177.096-.289 0-.801-.038-.931-.038s-.789.038-1.347.038c-.155 0-.227-.02-.227-.096 0-.047.051-.072.11-.072.083 0 .251-.012.348-.02.549-.076.789-.53 1.003-1.125l2.71-7.414c.143-.395.189-.466.26-.466.072 0 .118.059.265.428.18.453 2.056 5.383 2.781 7.2.433 1.062.777 1.255 1.028 1.326.181.063.361.071.479.071.071 0 .117.013.117.072l-.008-.009Zm-3.642-3.94-1.133-3.223c-.038-.096-.059-.13-.097-.13-.025 0-.058.05-.083.13l-1.054 3.222c-.025.06 0 .084.034.084h2.282c.059 0 .059-.033.051-.084Zm11.496 3.163c-.021.168-.037.31-.084.42-1.636.084-3.272.105-4.904 0a1.07 1.07 0 0 1-.097-.42c-.059-.503-.059-1.443-.059-2.593 0-3.973 0-4.297.021-4.683.025-.42.122-.62.441-.68.142-.024.218-.037.298-.037.05 0 .096-.025.096-.071 0-.072-.059-.097-.193-.097-.356 0-1.112.038-1.17.038-.059 0-.814-.038-1.347-.038-.13 0-.193.025-.193.097 0 .046.05.071.096.071.109 0 .311.013.407.038.395.084.487.273.512.68.025.381.025.717.025 2.58v2.102c0 1.145 0 2.09-.058 2.593-.047.344-.105.608-.349.659a1.76 1.76 0 0 1-.356.046c-.072 0-.097.038-.097.071 0 .072.059.097.193.097.357 0 1.112-.038 1.171-.038.05 0 .503.025 1.015.038h4.347c.373-.013.801-.038.848-.038h.574c.97 0 .932.407.932.776v.13c-.013.168.025.202.084.202.071 0 .096-.05.121-.156.026-.13.189-1.015.261-1.372.012-.07.029-.142-.034-.142-.071 0-.26.071-.621.096-.168.013-.81.227-.789-.742-.021-.538-.021-1.314-.021-2.22v-2.102c0-1.863 0-2.195.021-2.58.021-.42.118-.622.441-.68.142-.025.218-.038.298-.038.05 0 .096-.025.096-.071 0-.072-.059-.097-.193-.097-.361 0-1.112.038-1.17.038-.059 0-.814-.038-1.351-.038-.131 0-.193.025-.193.097 0 .046.05.071.096.071.109 0 .31.013.407.038.39.084.487.273.512.68.025.381.025.717.025 2.58v2.102c0 1.145 0 2.09-.059 2.593Zm5.312.801c-.059.395.135.441.286.193l.142-.193.99-1.275c1.486-1.939 3.047-3.81 4.624-5.648.109-.13.168-.058.168.084v3.45c0 1.145 0 2.089-.059 2.592-.05.344-.109.609-.348.659a1.733 1.733 0 0 1-.357.046c-.071 0-.096.038-.096.071 0 .072.059.097.193.097.361 0 1.108-.038 1.171-.038.058 0 .809.038 1.464.038.13 0 .193-.038.193-.097 0-.033-.025-.07-.097-.07-.105 0-.369-.022-.537-.047-.356-.05-.432-.31-.47-.659-.058-.503-.058-1.443-.058-2.593v-5.396c.058-.394-.13-.44-.286-.188a165.672 165.672 0 0 1-5.815 7.128c-.05.059-.109.05-.109-.046 0-3.94 0-5.79.025-6.176.025-.42.122-.621.445-.68.142-.025.214-.038.298-.038.05 0 .096-.025.096-.07 0-.072-.063-.097-.193-.097-.356 0-1.108.037-1.17.037-.063 0-.814-.037-1.347-.037-.135 0-.193.025-.193.096 0 .046.046.071.096.071.109 0 .311.013.403.038.394.084.491.273.516.68.021.382 0 .717.021 2.58v5.493l.004-.005Zm11.543 0c-.059.395.134.441.289.193l.143-.193.99-1.275c1.481-1.939 3.046-3.81 4.624-5.648.105-.13.164-.058.164.084v3.45c0 1.145 0 2.089-.059 2.592-.046.344-.105.609-.344.659a1.733 1.733 0 0 1-.357.046c-.071 0-.096.038-.096.071 0 .072.058.097.193.097.356 0 1.112-.038 1.17-.038.059 0 .814.038 1.469.038.13 0 .189-.038.189-.097 0-.033-.025-.07-.097-.07a4.94 4.94 0 0 1-.541-.047c-.357-.05-.428-.31-.462-.659-.058-.503-.058-1.443-.058-2.593v-5.396c.058-.394-.135-.44-.29-.188a159.797 159.797 0 0 1-5.815 7.128c-.046.059-.105.05-.105-.046 0-3.94 0-5.79.021-6.176.025-.42.117-.621.44-.68a1.73 1.73 0 0 1 .298-.038c.051 0 .097-.025.097-.07 0-.072-.059-.097-.189-.097-.361 0-1.112.037-1.171.037-.058 0-.814-.037-1.351-.037-.13 0-.193.025-.193.096 0 .046.051.071.097.071.109 0 .31.013.407.038.394.084.491.273.512.68.021.382 0 .717.021 2.58v5.493l.004-.005ZM109.04 28.488c.109-.155.143-.28.046-.323-.088-.038-.155.05-.331.23-.491.5-1.003.6-1.221.6-.135 0-.798.022-.886-.775-.033-.332.067-.563-.168-.563-.331 0-.587.517-.587.827 0 .445.466.91 1.41.915.667 0 1.38-.386 1.741-.907l-.004-.004Zm40.364 0c.109-.155.142-.28.046-.323-.088-.038-.156.05-.332.23-.491.5-.998.6-1.221.6-.134 0-.797.022-.885-.775-.034-.332.067-.563-.168-.563-.331 0-.587.517-.587.827 0 .445.47.91 1.409.915.668 0 1.377-.386 1.742-.907l-.004-.004ZM12.378 26.799l.42-.894-.27-.122-.574.734.067.32.352-.043.005.005Zm2.09.243.016-.873-.302-.038-.214.831.197.265.302-.185Zm16.95.185.197-.265-.214-.83-.306.037.017.873.306.185Zm2.14-.386.071-.32-.575-.734-.264.122.411.894.357.042v-.004Zm1.313-1.368-.1-.315-.903-.373-.134.276.814.559.323-.143v-.004ZM10.636 21.39l.076.348.923.332.143-.264-.827-.517-.315.101Zm.84 1.9-.97-.125-.247.222.214.286.981-.076.026-.302-.005-.004Zm-.605 1.868-.1.315.323.142.814-.558-.13-.277-.902.374-.005.004Zm24.063-3.42.072-.348-.315-.1-.83.516.146.264.927-.332Zm10.679.4s-.55-.286-.94-.353a5.335 5.335 0 0 0-1.116-.084c.256-.097.528-.21.738-.34 1.204-.73 1.351-2.123 1.351-2.123s-.713-.072-1.116-.067c-.675.008-1.175.063-1.347.105.52-.244.743-.407 1.112-.764.936-.91.789-2.236.789-2.236s-.34-.122-.881-.072c-.445.038-.6.088-.81.202.81-.91.919-1.473 1.007-2.081.134-.92-.189-1.578-.264-1.624 0 0-.386.08-.936.503-.604.462-1.448 1.242-1.448 1.242s.223-.256.47-.755c1.05-2.14.928-3.827.65-4.33-.301-.554-.885-.588-1.153-.18-.206.302-.802 1.594-1.292 2.517-.773 1.477-1.771 2.87-2.186 3.377-.227-.486-.45-.146-.45-.146s-.34.575-.721 1.208a5.897 5.897 0 0 1-1.074 1.284c-.353-.42-.697-.57-.697-.57l-.105.108s-2.505 2.619-3.277 3.634c-.776 1.011-.193 1.502.37 2.329.558.826.319 1.787-.844 2.244-.998.395-1.699.034-1.984-.457.738-.306 1.48-1.049 1.485-2.068 0-.172-.017-.349-.054-.533-.231-1.116-1.138-1.78-2.145-1.775-.348 0-.709.08-1.057.239-.226.1-.315.185-.49.319l-.097.084c-.47-.86-.437-1.532.138-2.644.617-1.195 1.687-1.728 1.687-1.728l.239.193s0-.088.508-.323c.516-.235 1.049-.172 1.456.298.365.423.34.981.34.981s.34-.297.448-.662c.105-.361-.029-.655-.029-.655s.42.16.873.344c.42.168 1.166.436 1.83-.138.662-.58.532-1.39.532-1.39s-.365.576-1.133.727c-.562.109-1.17-.214-1.624-.407-.444-.19-1.044-.277-1.044-.277s.533-.453 1.46-.172c.68.205.764.47.764.47s.36-.265.578-.768c.235-.554.084-1.045-.318-1.431-.399-.373-1.196-.6-1.196-.6s.134-.21-.139-.298c-.239-.08-.482-.143-.482-.143s.193-.646-.453-.935c-1.05-.474-2.728.407-4.553.667-1.233.172-1.754-.201-1.754-.201s.084.272.34.537c.466.478.806.633.806.633s-.365.063-.667.021c-.298-.042-.831-.172-.831-.172s.168.277.49.512c.32.24.66.386.66.386s-.684.34-1.238.512c-.558.172-1.498.189-1.498.189s.302.298.751.47.642.193.642.193-.382.49-.81 1.304c-.298.563-.764 1.641-1.02 2.237-.251-.596-.721-1.67-1.015-2.236a9.672 9.672 0 0 0-.814-1.305s.193-.021.642-.193c.45-.172.747-.47.747-.47s-.94-.021-1.494-.19a10.167 10.167 0 0 1-1.238-.511s.34-.151.66-.386a1.9 1.9 0 0 0 .49-.512s-.533.13-.83.172c-.299.042-.663-.02-.663-.02s.34-.156.805-.634c.256-.265.34-.537.34-.537s-.525.373-1.754.2c-1.825-.26-3.5-1.14-4.557-.666-.642.29-.453.935-.453.935s-.243.068-.482.143c-.277.088-.139.298-.139.298s-.801.222-1.196.6c-.407.386-.558.877-.318 1.43.214.504.574.769.574.769s.084-.265.764-.47c.923-.281 1.46.172 1.46.172s-.6.088-1.049.277c-.449.193-1.057.516-1.623.407a1.814 1.814 0 0 1-1.133-.726s-.126.81.533 1.389c.662.574 1.41.306 1.829.138.457-.185.868-.344.868-.344s-.134.294-.025.655c.105.364.45.662.45.662s-.026-.558.339-.981c.407-.47.944-.537 1.456-.298.512.235.512.323.512.323l.235-.193s1.07.533 1.687 1.728c.579 1.117.633 1.759.155 2.623-.013-.009-.034-.034-.046-.042-.16-.13-.357-.227-.6-.336a2.566 2.566 0 0 0-1.062-.239c-1.003-.004-1.913.659-2.14 1.77-.042.185-.054.361-.054.534 0 1.07.713 1.795 1.49 2.072-.282.491-.978.852-1.985.453-1.163-.457-1.402-1.418-.844-2.244.558-.827 1.142-1.314.365-2.329-.772-1.015-3.272-3.634-3.272-3.634l-.11-.109s-.344.151-.7.571a5.898 5.898 0 0 1-1.074-1.284l-.722-1.208s-.222-.344-.453.146c-.416-.507-1.41-1.9-2.186-3.377-.487-.923-1.087-2.215-1.293-2.518-.268-.407-.851-.373-1.15.18-.276.504-.398 2.191.651 4.33.244.5.466.756.466.756s-.843-.78-1.443-1.242c-.554-.424-.94-.503-.94-.503-.076.046-.399.705-.265 1.623.088.609.193 1.171 1.007 2.082-.21-.114-.369-.164-.814-.202-.537-.05-.88.072-.88.072s-.143 1.325.792 2.236c.365.357.588.516 1.108.764-.168-.042-.671-.097-1.347-.105-.403-.005-1.116.067-1.116.067s.147 1.393 1.351 2.123c.206.126.483.243.734.34-.335 0-.637 0-1.112.084-.394.067-.94.352-.94.352s.483 1.263 1.708 1.708c.227.08.34.147.604.184-.117.017-.553.156-1.074.399-.36.172-.763.529-.763.529s.625 1.15 1.779 1.36c.008 0 .1.016.189.037a5.338 5.338 0 0 0-.844.671c-.285.281-.575.818-.575.818s.97 1.012 2.367.848a2.782 2.782 0 0 0-.344.474c-.294.487-.382 1.12-.382 1.12s1.057.57 2.24.193a2.203 2.203 0 0 0-.176.432c-.105.387-.121 1.175-.121 1.175s1.28.378 2.395-.436c-.08.164-.121.373-.15.65-.043.399.058 1.18.058 1.18s1.389.163 2.366-.852l.076-.084a2.42 2.42 0 0 0-.017.356c.017.399.231 1.158.231 1.158s1.397-.037 2.22-1.183a2.43 2.43 0 0 0 .201-.319c-.013.16.063.512.151.793.105.328.399.776.399.776s1.15-.352 1.569-1.497c.189-.504.256-1.154.264-1.75.067.071.114.113.114.113s.377-.1.746-.482c-.264.931-.444 1.934-.444 2.975 0 .256.012.516.033.78.05.583.084.86.227 1.3 0 0-.197.37-.399.622-.08.096-.386.398-.344.88.03.366.407.416.407.416s-.042.428.105.625a.871.871 0 0 0 .457.307c.097.025.332.08.332.08s.067.473.226.587c.197.147.676.285.68.29.122.041.336.196.478.264.223.105.537.058.835-.101.198-.11.231-.411.223-.487.096.042.113.046.201.084.315.126.558.264.57.319.148.243.24.856.303 1.284.033.184.012.44.138.7.013.022.025.042.038.06-.03.012-.059.02-.1.037a4.552 4.552 0 0 0-1.13.575c-.402.29-.889 1.074-1.506 1.217-.54.126-.94-.122-.99-.458-.046-.335-.033-.507-.033-.507s-.743.436-.798.965c-.075.692.53.977.53.977s-.983.944-.676 1.763c.264.7.448 1.002.495 1.267.05.264-.072.436-.072.436s.495.059.609-.617c.075-.424.184-.625.28-.742.097-.122.106-.177.106-.177s-.042.609.1 1.066c.147.457.668.91 1.41.974.667.054 1.284-.328 1.284-.328s.562.76 1.343.865c.814.109 1.3-.072 1.56-.143 0 0 .215.386.408.63.096.125.264.314.474.486l.247.143s.294-.286.491-.525c.193-.239.466-.83.466-.83s.877.322 1.653.155c.768-.168 1.297-.697 1.297-.697s.478.504 1.22.458c.743-.047 1.28-.722 1.427-1.18.147-.457.084-1.036.084-1.036s.05.038.172.147c.122.1.214.151.302.646.126.676.487.71.487.71s-.03-.345.105-.68c.105-.252.323-.533.482-1.159.294-1.124-.68-1.585-.68-1.585s.546-.303.5-.907c-.059-.78-.89-1.053-.89-1.053s.068.084.017.42c-.046.335-.377.68-1.024.499-.348-.097-.969-.86-1.372-1.146-.41-.29-1.007-.553-1.225-.65a.564.564 0 0 0-.088-.034c.004-.008.008-.016.017-.025.13-.256.109-.512.142-.7.055-.37.13-.882.244-1.171.067-.176.319-.306.633-.428.089-.038.101-.038.202-.084-.009.076.025.378.226.487.298.16.609.205.831.1.139-.067.357-.222.479-.264.004 0 .482-.142.683-.29.16-.108.227-.587.227-.587s.235-.054.332-.08c.1-.025.306-.108.457-.306.147-.197.105-.625.105-.625s.377-.05.407-.415c.042-.487-.265-.785-.349-.881a4.854 4.854 0 0 1-.398-.621c.138-.44.172-.718.226-1.301.021-.26.034-.525.034-.78 0-1.045-.18-2.048-.445-2.975.374.381.747.482.747.482s.046-.042.113-.113c.009.596.08 1.246.265 1.75.42 1.14 1.569 1.497 1.569 1.497s.298-.449.403-.776c.088-.277.163-.63.147-.793.07.122.126.214.205.32.823 1.149 2.22 1.182 2.22 1.182s.21-.76.226-1.158c.005-.126 0-.247-.016-.356.025.029.054.054.08.084.977 1.015 2.366.851 2.366.851s.1-.78.058-1.179c-.025-.277-.067-.486-.15-.65 1.12.814 2.395.436 2.395.436s-.02-.789-.121-1.175a2.198 2.198 0 0 0-.172-.432c1.174.378 2.236-.193 2.236-.193s-.092-.633-.382-1.12a2.783 2.783 0 0 0-.344-.474c1.397.163 2.37-.848 2.37-.848s-.289-.537-.574-.818c-.31-.306-.65-.55-.843-.671.088-.021.18-.038.188-.038 1.154-.206 1.78-1.36 1.78-1.36s-.403-.356-.764-.528c-.516-.243-.957-.386-1.07-.399.264-.033.377-.105.604-.184 1.23-.445 1.708-1.708 1.708-1.708m-1.549-2.568c.55 0 .84.063.923.08-.486.583-1.023 1.045-2.48 1.485-1.892.567-3.02.491-3.436.533.974-.642 1.217-1.032 1.217-1.032s-.017-.084-.37-.218c.328-.088.966-.248 1.44-.403.327-.11.529-.18.885-.336.139-.017 1.196-.109 1.813-.109m-11.073 8.375c.059.243.298.734.445 1.003-.03.134-.067.331-.185.533-.168.28-.331.402-.331.402s-.57-.117-.894-.717c-.205-.394-.197-.856-.205-1.12a7.61 7.61 0 0 0 .302-.273c.184-.189.293-.5.293-.5s.185.143.487.232c.017.104.046.255.092.432l-.004-.005s0 .005.009.013m.34-.298c.239.08.41.122.532.122.067-.059.193-.223.235-.269.156.147.244.361 1.07.869.021.096.025.377-.008.659a3.05 3.05 0 0 1-.1.524s-.542-.1-.987-.558c-.541-.558-.646-1.074-.742-1.347Zm1.057-.411c.025-.042.059-.084.08-.13.197-.399.176-.76.176-.76s.96.596 1.783.814c.046.105.11.34.155.567.072.365.059.545.059.545s-.52-.033-1.238-.352c-.709-.315-.868-.57-1.015-.688m1.573-.772c-.16-.063-.457-.206-.575-.256.437-.151.676-.432.676-.432s-.021-.122-.084-.198c.306.055.55.135 1.087.105l.142.009c.084.084.454.239.697.499.29.306.377.545.407.671-.554-.017-1.43-.037-2.345-.394m1.078-1.36c-.68-.016-1.016-.083-1.36-.125-.075-.088-.176-.227-.314-.328.084-.058.314-.18.457-.352.478.02 1.532.046 2.396-.26l.121-.046c.122.05.277.117.47.21.386.176.584.398.66.499-.29.163-1.453.423-2.43.402Zm.268-1.418c-.474.05-.944.067-1.124.013 0 0 .084-.139.163-.357-.05-.155-.235-.331-.574-.604l-.076-.059a13.679 13.679 0 0 0 2.002-.352c.1.012.314.012.81.201.608.231.788.432.86.508-.336.155-1.05.545-2.065.65m.285-1.955c-1.137.31-1.712.331-1.976.331.1-.117.252-.34.365-.688.407-.15 1.397-.537 2.115-1.044.147 0 .37.008.705.037.562.05.826.214.952.298-.365.416-1.217.806-2.16 1.066Zm6.303-5.131c.511-.068.721-.005.788.012-.277.508-.998 1.347-2.605 2.228-1.515.827-2.413 1.154-2.79 1.28-.42-.084-.827-.084-.827-.084.315-.298.545-.588.709-.835.558-.218 2.362-.953 3.743-2.316.017-.017.054-.042.075-.059.193-.075.63-.197.907-.23m-5.484-1.167s.696-.83 1.439-1.993c.646-1.015 1.48-2.782 2.022-3.877.256-.52.785-.298.793.49.008 1.155-.873 3.034-1.611 3.97-1.469 1.855-2.16 2.274-2.731 2.656.004-.071.226-.6.083-1.246m2.421.172c.332-.323 1.645-1.31 2.472-2.064.352-.328.738-.491.738-.491.097.608-.26 1.435-.575 1.95-.457.752-1.237 1.499-1.787 1.889-1.72 1.22-1.859 1.23-2.14 1.363-.038 0-.885-.323-1.804.013.071-.08.096-.168.096-.168s1.654-1.095 2.996-2.496m-3.843 1.212c.432-.6.659-1.04.76-1.225.213-.403.419-.323.406.093-.012.742-.386 1.514-.873 2.135-.44.558-.864.81-1.095.932.05-.135.168-.68-.033-1.091.147-.118.52-.403.835-.844Zm.449 1.825a10.5 10.5 0 0 1 .717-.142c.558-.088.927.012 1.07.067-.302.281-1.108.986-1.963 1.464-.78.44-1.36.684-1.633.793-.407-.176-.784-.201-.784-.201s.214-.222.612-.608c.386-.16 1.196-.487 1.977-1.373m-7.419 7.012c1.419.277 2.413-.462 2.757-1.05.357-.6.29-1.258-.31-2.093-.609-.852-.936-1.045.688-2.828 1.628-1.787 2.249-2.274 2.249-2.274s.62.218.54 1.1c-.05.566-1.014 1.53-1.3 1.837-.298.315-.554.57-.554.57s.407-.016.94.076c.382.063.592.218.592.218s-.126.546-.31.76l-.5.554s.415.155.717.444c.26.244.407.462.407.462s-.172.478-.465.717c-.29.24-.739.479-.739.479s.399.26.647.575c.176.226.222.44.222.44s-.264.206-.609.315c-.167.05-.331.071-.461.075-.143.009-.24 0-.24 0s.022.495-.113.793a1.396 1.396 0 0 1-.432.512s-.566-.054-.818-.176c-.294-.147-.592-.403-.592-.403s-.26.508-.423.663a1.562 1.562 0 0 1-.412.281s-.285-.121-.553-.28c-.156-.089-.399-.32-.399-.32l-.873.613s-.369-.134-.864-1.007l-.025-.055c-.395-.822-.567-1.33-.65-1.665.486.319 1.439.591 1.883.675m-1.241-4.8c1.162.025 2.102 1.393 1.46 2.58-.642 1.188-1.86 1.045-2.107.68-.251-.365-.172-.91.177-1.158.352-.252.889.013.889.013l-.03-.042s-.515-.768-1.258-.097c-.18.164-.273.302-.302.625h-1.351c.008-.167.025-.197.054-.356.24-1.339 1.314-2.266 2.472-2.24m-7.502.26c0-.265.218-.483.482-.483s.487.218.487.483a.476.476 0 0 1-.306.448v1.889h-.374v-1.897a.492.492 0 0 1-.29-.445m.844-.822a.868.868 0 0 0-.663-.034.899.899 0 0 0-.583.613.905.905 0 0 0-1.116.877c0 .281.13.529.327.696v.554h-.315a3.672 3.672 0 0 0-.499-1.25c.147-.172.633-.776.868-1.54.147-.478.24-.885.294-1.364.084.105.172.231.256.357.189.29.332.604.332.604l.163.361.143-.373s.138-.374.235-.907c.038-.205.063-.39.08-.541a4.491 4.491 0 0 1 .847 1.64.96.96 0 0 0-.365.311m-1.934 1.46a.484.484 0 1 1 .671.445v1.255h-.37V22.22a.488.488 0 0 1-.297-.445m7.418 2.04.042.532-9.591.017.016-.55h9.533ZM24.79 20.89c-.063-.252-.185-.5-.588-.655-.402-.15-.759.063-.759.063s-.067-.15-.269-.26a4.265 4.265 0 0 1 .462-1.1c.134-.226.277-.419.394-.566.017.151.042.336.08.542.097.533.23.902.235.906l.139.373.163-.36s.139-.315.332-.605c.083-.125.172-.251.251-.356.055.482.147.89.294 1.363.223.714.671 1.293.848 1.51a3.773 3.773 0 0 0-.525 1.28h-.314v-.55a.9.9 0 0 0 .335-.696c0-.499-.352-.94-1.082-.88m-.286.885a.484.484 0 1 1 .676.444v1.255h-.37v-1.255a.481.481 0 0 1-.302-.444M23.45 21.1a.483.483 0 1 1 .642.457v1.926h-.369v-1.951a.487.487 0 0 1-.273-.432Zm8.128-4.175s-.122-.319-.592-.613c-.47-.298-.684-.272-.684-.272s.269-.24.642-.068c.378.177.512.298.596.537.08.244.038.412.038.412m.109-1.217c.402.138 1.187.449 1.485.566.747.29 1.41-.105 1.41-.105s-.264.647-1.162.504c-.609-.097-1.263-.416-1.545-.588-.444-.268-.818-.327-.818-.327s.37-.138.63-.05Zm.68-2.48s.591.03.994.378.566.612.457 1.011c-.105.403-.302.495-.302.495s-.37-.336-1.082-.36c-.37-.018-1.221.066-1.603.448-.08.067-.143-.017-.088-.08.117-.134.218-.2.407-.465.285-.39.402-.558.658-.852.256-.294.554-.575.554-.575m-6.512.151s.382.021.739-.02c.348-.038.717-.097 1.129-.097.41 0 .839-.135 1.548.147.713.285 1.112.428 1.112.428s.28-.231.474-.458c.189-.23.256-.482.256-.482s-.177.067-.378.025c-.201-.038-.768-.26-1.481-.151-.71.105-1.51.18-2.287.063-.78-.122-.935-.357-.935-.357s.373.105 1.707-.126c1.628-.28 3.323-1.09 3.797-.44.143.193.055.495-.037.721-.093.231-.47.92-.848 1.314-.298.31-.558.54-.768.713-.16.105-.696.449-1.074.575a7.64 7.64 0 0 1-1.082.31l1.128-1.846-.377.084s-.747.168-1.481.546a6.48 6.48 0 0 0-.735.482c.03-.18.063-.378.093-.47.075-.243.193-.428.235-.478a.728.728 0 0 1 .125-.101l.126-.067a5.167 5.167 0 0 1-.44-.1 2.272 2.272 0 0 1-.537-.215m3.625-.302c.24.021.285.059.315.063l-.034.168s-.017 0-.273-.1c-.256-.093-.23-.106-.23-.106s-.03-.054.222-.025Zm.7.378s.06-.021.105-.063c.114-.126.143-.193.143-.193l.206.038-.223.28-.23-.062Zm-6.776 4.871c.156-.403.323-.772.491-1.12.34-.487.714-.831.974-1.045-.017.084-.042.176-.059.273a4.44 4.44 0 0 0-.076.86v.252l.034.57.277-.503s.256-.466.558-.818a3.57 3.57 0 0 1 .596-.558c-.067.205-.143.436-.172.62a4.782 4.782 0 0 0-.055.739c0 .344.03.583.034.592l.05.394.24-.319s.46-.612.776-.944c.289-.306.604-.562.851-.743.244-.176.416-.276.42-.28l-.168-.282s-.73.432-1.343 1.079c-.167.18-.373.432-.532.629v-.126c0-.201.012-.445.05-.688.03-.168.105-.428.184-.638.076-.214.139-.382.139-.382l.164-.41-.395.2s-.596.307-1.095.903c-.1.121-.197.247-.281.369a4 4 0 0 1 .059-.457c.08-.386.16-.684.16-.689l.104-.386-.344.206s-.218.126-.512.382c.042-.067.08-.135.122-.197.239-.399.617-.806.617-.806s-.487-.16-.617-.16c-.139 0-.328-.054-.328-.054s.433-.122.844-.256c.314-.1.721-.323.906-.432-.017.042-.033.092-.05.143-.08.264-.164.91-.168.914l-.055.403.32-.252s.658-.52 1.006-.696c.344-.176.697-.306.965-.395.013-.004.03-.012.046-.016l-1.09 1.783.352-.059s.81-.096 1.515-.365l.163-.071c.6-.231 1.016-.6 1.028-.609.37-.29.739-.633.944-.948.42-.63.802-1.162.802-1.162s.1-.017.155.008c.054.03.134.08.134.08s-.256.243-.428.445c-.176.201-.608.818-.906 1.246-.319.461-.84 1.074-1.125 1.263-.318.214-.54.382-.54.382l-.328.033s-.856.23-1.745 1.603c-.886 1.368-.756 2.492-.5 3 .046.092.151.273.235.407-.08.071-.155.151-.235.23-.059-.075-.134-.167-.218-.293a3.953 3.953 0 0 1-.529-1.049 6.925 6.925 0 0 1-.314-1.7l-.03-.398-.26.302s-.285.332-.529.705a4.23 4.23 0 0 0-.172.281 6.95 6.95 0 0 1-.104-.47c-.093-.512-.11-.89-.11-.89l-.02-.368-.26.26s-.37.373-.693.91c-.067.114-.134.223-.193.328.071-.26.155-.537.248-.772m-.575 2.068a.483.483 0 0 1 .176.931v2.153h-.373v-2.16a.474.474 0 0 1-.286-.437c0-.265.214-.483.483-.483m-8.715-8.492c.478-.646 2.17.16 3.797.44 1.339.227 1.712.126 1.712.126s-.155.24-.931.357c-.78.122-1.578.042-2.291-.063-.713-.109-1.28.113-1.477.151-.202.042-.378-.025-.378-.025s.067.252.256.482c.185.227.47.458.47.458s.399-.143 1.112-.428c.713-.281 1.141-.147 1.548-.147.407 0 .78.059 1.129.096.36.038.738.021.738.021s-.226.139-.537.214a6.046 6.046 0 0 1-.44.101l.122.067c.046.034.1.076.13.101.046.05.159.235.23.478.025.093.063.286.093.47a6.253 6.253 0 0 0-.73-.482 6.762 6.762 0 0 0-1.482-.546l-.381-.084 1.128 1.846a7.525 7.525 0 0 1-1.086-.31c-.374-.13-.91-.47-1.07-.575a7.626 7.626 0 0 1-.772-.713c-.378-.39-.751-1.083-.844-1.313-.096-.227-.18-.525-.042-.722m2.274 1.196s.03.012-.226.105c-.252.096-.273.1-.273.1s-.03-.16-.033-.168c.029-.004.075-.042.314-.063.256-.025.218.026.218.026Zm-.923.352-.23.063-.227-.281.21-.038s.03.067.142.193a.245.245 0 0 0 .105.063Zm-2.253 1.297c-.713.025-1.087.36-1.087.36s-.193-.092-.297-.495c-.11-.398.054-.663.457-1.01.403-.353.994-.378.994-.378s.298.277.554.574c.252.298.374.462.659.852.189.264.285.332.403.466.058.063-.009.15-.088.08-.382-.382-1.234-.462-1.599-.45m.562 1.33c-.28.173-.931.492-1.544.588-.902.143-1.162-.503-1.162-.503s.659.394 1.405.105c.303-.118 1.087-.428 1.49-.567.256-.092.625.05.625.05s-.373.063-.818.328m.89.226c-.47.294-.588.613-.588.613s-.046-.172.034-.411c.084-.24.218-.361.596-.537a.613.613 0 0 1 .646.067s-.214-.025-.684.273m4.401 4.531c.252-.508.382-1.632-.503-3-.89-1.368-1.746-1.603-1.746-1.603l-.327-.033s-.223-.168-.541-.382c-.286-.189-.802-.797-1.125-1.263-.293-.428-.73-1.04-.902-1.246a8.216 8.216 0 0 0-.432-.445s.08-.055.134-.08c.055-.025.151-.008.151-.008s.386.528.802 1.162c.21.315.579.663.948.948 0 0 .42.378 1.024.609l.167.071c.701.269 1.507.36 1.515.365l.353.059-1.091-1.783s.03.008.046.016c.264.084.617.214.96.395.345.176 1.008.696 1.008.696l.319.252-.055-.403s-.088-.654-.168-.914c-.017-.05-.033-.101-.05-.143.189.109.591.331.906.432.415.134.848.256.848.256s-.19.055-.323.055c-.135 0-.621.159-.621.159s.377.407.62.806c.038.063.08.13.118.197-.294-.252-.503-.378-.508-.382l-.344-.206.105.386s.08.303.16.688c.033.147.046.307.058.458a5.372 5.372 0 0 0-.28-.37c-.504-.595-1.087-.893-1.1-.902l-.394-.2.163.41s.067.168.143.382c.075.214.155.474.18.638.038.243.05.487.05.688v.126c-.159-.197-.36-.45-.532-.63a6.77 6.77 0 0 0-1.343-1.078l-.168.281s.172.105.42.281c.247.18.566.437.852.743.314.332.776.944.776.944l.239.319.055-.394s.029-.244.029-.592c0-.218-.013-.474-.055-.738a3.98 3.98 0 0 0-.172-.621c.18.134.399.323.596.558.298.348.558.818.558.818l.277.503.03-.57v-.252c0-.227-.009-.562-.072-.86-.02-.097-.042-.189-.059-.273.265.214.634.562.974 1.045.168.348.331.717.49 1.12.089.23.177.508.248.772-.063-.105-.125-.214-.193-.327-.319-.537-.684-.902-.688-.91l-.26-.26-.02.368s-.022.378-.114.89c-.03.18-.072.34-.105.47-.05-.088-.105-.185-.168-.281a6.503 6.503 0 0 0-.533-.705l-.256-.302-.03.398a7.342 7.342 0 0 1-.314 1.7c-.126.398-.34.776-.529 1.049-.092.134-.172.239-.234.319-.068-.089-.143-.194-.206-.265.084-.138.185-.315.227-.398m-3.642 2.622c-.647-1.188.293-2.551 1.451-2.58 1.163-.026 2.232.902 2.472 2.24.029.16.029.193.042.36l-1.36.018c-.03-.32-.075-.504-.235-.693-.671-.793-1.41-.096-1.41-.096s-.172.273-.067.365c.105.092.302.054.302.054s.382-.285.73-.037c.349.252.428.68.177 1.044-.252.365-1.465.508-2.102-.68m-5.195-6.024s.621.486 2.245 2.274c1.628 1.787 1.3 1.976.688 2.828-.6.839-.663 1.493-.31 2.093.344.588 1.338 1.33 2.756 1.05.445-.089 1.402-.361 1.884-.676-.084.331-.26.843-.654 1.666-.009.016-.017.037-.026.054-.49.877-.864 1.007-.864 1.007l-.868-.613s-.248.231-.4.32a5.36 5.36 0 0 1-.553.28s-.21-.092-.407-.28c-.164-.16-.424-.664-.424-.664s-.293.256-.587.403c-.252.122-.818.176-.818.176s-.29-.197-.432-.511c-.135-.298-.114-.793-.114-.793s-.096.008-.239 0h-.004a1.844 1.844 0 0 1-.462-.076 2.064 2.064 0 0 1-.608-.315s.042-.214.222-.44c.248-.315.647-.575.647-.575s-.445-.24-.739-.478c-.294-.24-.461-.718-.461-.718s.146-.218.406-.461c.303-.286.718-.445.718-.445s-.315-.34-.5-.554c-.184-.214-.31-.76-.31-.76s.21-.155.588-.218c.537-.092.94-.075.94-.075s-.257-.256-.554-.57c-.29-.307-1.25-1.272-1.301-1.838-.08-.882.541-1.1.541-1.1M7.91 22.351a13.67 13.67 0 0 0 2.001.352.945.945 0 0 1-.08.06c-.34.272-.524.444-.574.603.08.219.168.357.168.357-.18.055-.655.038-1.12-.012-1.02-.105-1.73-.496-2.065-.65.076-.08.252-.278.865-.509.49-.188.704-.188.81-.201m-2.057-1.657c.126-.084.39-.248.949-.298.335-.03.562-.038.709-.038.713.508 1.707.894 2.114 1.045.114.348.265.57.37.688-.26 0-.835-.021-1.977-.332-.944-.256-1.795-.646-2.16-1.065m1.54 3.373c.864.302 1.917.281 2.395.26.143.172.37.294.457.353-.142.1-.239.239-.314.327-.34.042-.68.11-1.36.126-.977.02-2.14-.24-2.429-.403.076-.1.269-.323.655-.5.193-.087.352-.159.474-.209l.121.046Zm1.157 1.636c.538.034.777-.05 1.087-.104-.067.08-.088.197-.088.197s.24.28.671.432c-.117.054-.41.193-.574.256-.91.352-1.788.377-2.346.394.03-.126.118-.365.407-.671.243-.26.608-.415.697-.5.004 0 .138-.004.142-.008m.474 2.052c.047-.23.11-.462.151-.566.827-.219 1.784-.814 1.784-.814s-.017.36.176.76c.025.045.054.087.08.13-.147.117-.307.373-1.016.687-.717.32-1.238.353-1.238.353s-.012-.18.063-.546m1.41.638c.827-.508.915-.722 1.07-.869.038.047.164.21.235.269.122 0 .294-.038.533-.122-.092.269-.197.79-.738 1.347-.445.457-.987.558-.987.558s-.067-.201-.104-.524c-.03-.281-.03-.563-.009-.659Zm2.182-.42.008-.012s-.004 0-.004.004a3.16 3.16 0 0 0 .088-.432c.302-.088.487-.23.487-.23s.11.31.298.498c.075.076.189.18.302.273-.008.264 0 .726-.21 1.12-.319.6-.89.718-.89.718s-.167-.122-.335-.403a1.584 1.584 0 0 1-.185-.533c.147-.268.382-.76.445-1.003m-2.467-7.934c.399.386.613.609.613.609s-.378.025-.785.201a12.877 12.877 0 0 1-1.632-.793c-.856-.478-1.662-1.183-1.964-1.464.143-.055.516-.156 1.07-.067.353.058.58.109.718.142.784.885 1.594 1.213 1.98 1.372Zm-2.287-4.422c.101.184.323.625.756 1.225.318.44.688.726.835.843-.202.412-.084.957-.03 1.091-.23-.122-.654-.373-1.095-.931-.49-.621-.86-1.393-.873-2.136-.008-.415.198-.495.412-.092M2.95 10.082c.008-.788.537-1.01.793-.49.54 1.095 1.376 2.861 2.022 3.877.747 1.162 1.44 1.992 1.44 1.992-.143.647.079 1.175.083 1.247-.57-.386-1.263-.802-2.727-2.656-.739-.936-1.624-2.816-1.611-3.97Zm-.798 4.947c-.314-.516-.667-1.342-.57-1.95 0 0 .382.163.738.49.827.755 2.136 1.737 2.467 2.065 1.343 1.401 2.996 2.496 2.996 2.496s.025.084.1.168c-.922-.336-1.766-.013-1.807-.013-.282-.134-.416-.142-2.136-1.363-.55-.39-1.33-1.137-1.792-1.888m-1.217 1.61c.068-.02.277-.079.79-.012.272.034.708.155.901.23.017.018.055.043.076.06 1.38 1.36 3.18 2.098 3.743 2.316.167.247.394.537.709.835 0 0-.407 0-.823.084-.377-.126-1.28-.454-2.786-1.28-1.607-.881-2.328-1.72-2.605-2.228m-.307 3.042c.084-.017.374-.08.923-.08.621 0 1.675.092 1.813.11.357.154.562.226.89.335.474.155 1.111.315 1.435.403-.349.134-.37.218-.37.218s.244.394 1.221 1.032c-.42-.042-1.544.034-3.436-.533-1.456-.44-1.997-.902-2.48-1.485m.072 2.668c.134-.042.386-.163.8-.243.55-.105 1.155-.075 1.482-.092.751.243 1.259.256 1.804.285.844.042 1.595 0 2.09-.02 0 0-.323.041-.793.372a1.443 1.443 0 0 0-.386.437c.008.042.16.155.222.206-.382.088-1.317.172-2.975-.055-1.296-.176-1.963-.663-2.249-.89m.407 2.698c.05-.063.386-.272.894-.537.331-.176.982-.344 1.326-.377a8.843 8.843 0 0 0 2.06-.122c.68-.117 1.066-.23 1.242-.294 0 0 .197.122.298.151-.214.05-.583.177-.843.416-.303.285-.37.482-.395.528.084.139.487.315.487.315-.613.214-1.28.31-2.283.352-1.963.093-2.488-.205-2.79-.432m.558 2.736c.013-.084.193-.407.63-.801.243-.223.662-.5.822-.558 1.41-.042 2.324-.315 2.991-.559.55-.205.802-.335.911-.415.52.172.856.21.952.223-.344.134-1.065.88-3.05 1.682-1.833.734-2.547.604-3.252.428m1.528 2.215s.067-.591.692-1.363c1.024-.223 2.249-.932 2.815-1.326.101-.071.13-.059.248-.143.285.122.898.11 1.175.11-.374.343-1.85 1.69-3.021 2.206-1.267.563-1.91.516-1.91.516Zm3.516.957c-.907.642-1.653.738-1.653.738s-.021-.243.029-.562c.084-.507.201-.78.201-.78 1.091-.491 2.178-1.725 2.619-2.295.092-.122.457-.57.62-.79.076-.003.156-.016.24-.024a3.22 3.22 0 0 0-.164.659c-.059.41-.017.805-.017.805s.08.03.193.03c-.252.323-1.053 1.506-2.064 2.223m2.068 1.053c-.797.777-1.531.777-1.531.777s-.034-.307 0-.609c.03-.26.138-.763.155-.83.886-.79 1.473-1.918 1.8-2.598.26-.008.575-.054.894-.184-.013.117-.025.365.004.658.025.206.105.495.147.638a6.373 6.373 0 0 1-1.469 2.148Zm2.518.298c-.68.881-1.422 1.125-1.422 1.125s-.21-.176-.202-1.255c.562-.717.89-1.56 1.133-2.257a2.57 2.57 0 0 0 1.154-.634c.03.101.088.302.205.554.03.059.18.294.206.344-.323.953-.633 1.553-1.074 2.123Zm2.232.147c-.36.89-.898.982-.898.982s-.277-.58-.31-1.46c.235-.55.331-.902.482-1.544.223-.105.575-.31.86-.65.017.046.177.423.281.608-.058.94-.18 1.485-.415 2.06m.978-2.098s-.135-.1-.315-.382a2.699 2.699 0 0 1-.277-.562c.013-.034.1-.23.139-.407.075-.327.13-.642.104-.906 0 0 .16-.067.445-.256.294-.185.479-.328.479-.328l.545.428c0 .185-.013.743-.294 1.347a2.863 2.863 0 0 1-.83 1.062m.235 6.78c-.089-.247-.05-.394.088-.558.134-.16.272-.508.36-.47.088.038.021.197-.037.323-.063.126-.273.29-.235.374.033.088.247-.05.247-.05s-.071.247.063.297c.134.046.172-.121.26-.121.088 0 .21.298.399.323.184.025.394-.223.394-.223l.361.088s.197.395-.126.546c-.323.147-.507-.013-.793-.227-.285-.21-.893-.046-.977-.297m1.75-.336c-.026-.084.075-.172.075-.172s.033-.134.096.012c.063.147.076.273.013.286-.063.012-.164-.038-.185-.126Zm-.127 2.182c-.063-.084-.26.067-.298-.16-.037-.222.089-.21.311-.1.222.113.31.184.248.285-.06.096-.198.058-.256-.03m.42-.495c-.311.038-.559-.197-.827-.272-.277-.076-.52.05-.718-.223-.197-.273-.03-.386.05-.373.072.012.013.126.097.163.092.038.151-.088.189-.037.038.05-.025.184.046.21.075.025.063-.11.164-.072.1.038.373.16.507.139.135-.026.386-.286.58-.038.197.247.222.47-.085.508m.345-.856s.285-.202.226.05c-.063.247-.096.411-.273.184-.176-.222.046-.234.046-.234Zm.226 1.674c-.243 0-.399-.034-.348-.336.05-.294.063-.147.285-.185.222-.037.445-.063.445.185s-.134.336-.386.336m.398-.672c-.138-.1-.1-.197-.025-.272.076-.076.164-.076.185.15.025.223-.025.223-.16.122Zm.966 9.021a1.75 1.75 0 0 1-1.368.281c-.575-.121-.772-.436-.898-.755-.168-.42-.088-1.15-.076-1.447 0-.08.24-.936.277-1.116.025-.135.067-.265-.054-.235-.219.046.025.218-.617.579-.483.264-.747.797-.68 1.405.067.604.03.726.03.726 0-.025-.047-.201-.13-.424-.051-.134-.122-.264-.248-.738-.118-.478.134-.789.386-1.146.252-.36.62-.65.62-.65s-.293-.063-.486-.172c-.214-.126-.377-.31-.377-.608 0-.256.239-.47.239-.47s-.042.302.125.541c.118.172.52.348.903.336.386-.013 1.078-.445 1.36-.793.28-.344.658-.626.943-.802.39-.239.558-.264.873-.323.16.008.226 0 .357.021-.672.332-1.775 1.271-2.463 2.518-.483.86-.504 1.602-.328 2.03.185.458.512.672.835.705.357.042.621-.025.894-.084a.763.763 0 0 1 .65.156c.198.172.19.285.19.285s-.517-.126-.962.184m-.575-11.903.395-.411.696.973-.168.185-.922-.751v.004Zm.668 1.003-.135.15-.96-.654.125-.142.055-.088.915.734Zm.683-.353.16.047-.71.81-.062-.114.613-.747v.004Zm.298.445.986 1.037-.335.373-1.095-.906.444-.508v.004Zm1.23 1.238.08.071-.361.458-.118-.076.399-.453Zm.294.252 6.226 6.373-.13.13-6.424-6.15.323-.353h.005Zm6.07-1.792c.303 0 .35.08.085.29-.265.21-1.473.545-1.473.545s.5.05.78.071c.294.026.378.088.202.294-.202.235-1.582.415-1.582.415s.462.072.734.164c.126.05.273.143-.033.352-.307.21-1.297.445-1.297.445s.621.227.244.445c-.382.222-1.268.399-1.268.399s.538.18.424.356c-.038.059-.21.105-.407.16l-.956-.982c1.779-1.704 3.243-3.004 4.35-3.57 1.117-.576 1.23-.462.773-.026-.454.436-1.276.63-1.276.63s.424.004.697.004m-.495 8.383.314.306s-.02.009-.02.013c-.689.109-.689-.114-.689-.114s.151-.016.395-.2m-.592-.056s-.323-.323-.764-.94c-.264-.364-.482-.65-.755-1.086l1.897 1.867c-.18.16-.378.16-.378.16Zm.6 1.297c.264-.332.16-.55.16-.55s.15.047.419.017c.113-.012.26-.084.26-.084s.113.286-.076.558c-.188.286-.39.244-.734.315-.26.054-.34-.021-.34-.021s.172-.067.307-.235m-3.999-5.148s-.017.042-.034.067c-.171.201-1.762.516-1.762.516l-3.13 2.992s.038-.353.533-.89c.84-.902 2.45-2.329 3.57-3.449l.827.764h-.004Zm-4.498 5.375s-.28.02-.453-.156c-.277-.277-.18-.734-.18-.734s.142.113.398.147c.11.013.32.013.32.013s-.093.163-.102.335a2.18 2.18 0 0 0 .021.395m-.08-1.016c-.155-.02-.301-.113-.406-.18l.407-.416c.071.06.168.118.31.177.306.121.655.08.655.08s-.214.453-.965.343m.86-.616s-.315-.026-.395-.42l2.568-2.446s.03 0 .072-.008a2.037 2.037 0 0 1-.18.373c-.408.696-.823 1.062-1.146 1.405-.328.349-.923 1.1-.923 1.1m.776 3.604c-.495-.143-.818-.575-.818-.575s.201-.063.428-.05c.226.012.474.147.474.147s.008-.08-.025-.32c-.026-.184-.05-.356-.298-.662-.332-.411-.747-.353-.852-.44-.021-.017-.067-.122-.088-.303a.49.49 0 0 1 .122-.407c.083-.092.394-.189.6-.415.2-.227.356-.474.356-.474h-.226s.52-.655 1.166-1.36c.579-.63.873-1.326.986-1.632h.126c-.055.201-.18.634-.323.944-.189.416-.541.948-.869 1.595-.407.793-.717 1.456-.688 2.056.08 1.359 1.657 1.888 1.657 1.888-.008 0-.814.272-1.72.012m1.679-3.575a9.754 9.754 0 0 0-.252 1.725 5.358 5.358 0 0 0 .088 1.334s-.755-.39-.78-1.284c-.013-.533.21-1.145.41-1.661.206-.516 1.108-2.996 1.108-2.996l.11-.021c-.13.675-.613 2.593-.689 2.903m.252 3.34c-.117-.059-.16-1.338-.109-1.892.071-.86.294-1.834.546-3.021.092-.457.171-.94.243-1.33.08 0 .067-.025.142-.025.017.801.034 1.984.021 2.945-.025.013-.297.575-.356.751-.059.176-.248.726-.273 1.427-.03.63.1 1.074.1 1.074s-.192.13-.314.071Zm.923 1.406-.142-.143s-.223-.268-.336-.415c-.206-.264-.256-.458-.256-.458l.235-.092s.109.26.281.52c.055.084.172.235.222.273v.31l-.004.005Zm.034-.78-.025-1.297c-.009-.529-.042-1.867-.038-2.211 0 0 .642.478.6 1.833-.03.948-.327 1.339-.537 1.674Zm.29-6.89c.096 0 .121.025.184.025v-.02s1.02 2.6 1.22 3.117c.206.516.42 1.137.412 1.519-.012 1.145-1.024 1.644-1.024 1.644s.34-.68.336-1.611c-.004-.99-.974-4.066-1.133-4.67m2.794 5.45c-.348 1.033-1.43 1.062-1.72 1.054-.017 0 .776-.303 1.007-1.112.197-.697.214-1.314-.327-2.484a53.495 53.495 0 0 1-1.217-2.9h.143l.063.055c.121.214.465.822.88 1.645.513 1.028.765 1.418.979 1.9.348.785.352 1.38.192 1.85m.672-5.013c.134.105.298.243.482.415.31.26 1.1.865 1.632.978.697.143 1.247-.05 1.419-.336.126-.205.1-.415.1-.415s.135.092.18.243c.101.302-.13.621-.402.76-.336.172-.772.214-1.179.142-.407 0-.076.16.16.32.612.419 1.388.545 1.434 1.136.03.424-.012.437-.096.902-.067.365-.16.164-.16.164s-.02-.21-.121-.357c-.24-.36-.58-.428-.802-.801-.201-.34-.553-.94-.717-.76-.126.042.894 1.503.164 2.472-.814 1.082-1.477.277-1.914.298-.226.008-.612.243-.612.243s.109-.579.256-.717c.146-.139.344-.164.688-.219.335-.05.977-.117 1.032-.998.02-.332-.252-.768-.348-.91l.18-.219-2.757-2.79c.072 0 .072.017.135.017.205.02.818.105 1.25.436m.84-3.81a7.816 7.816 0 0 1-.458.231c-.076.03-.16.067-.26.105-.63.248-.697.952-.823 1.838-.121.885-.31.738-.616.738-.063 0-.24-.008-.542-.008l-.68-.672a.92.92 0 0 0 .315-.142c.269-.197.067-.445.067-.445s.52-.076.932-.327c.415-.252.172-.529.172-.529s.57-.189.923-.424c.445-.298.122-.625.122-.625s.465-.063.721-.34c.5-.528-.092-.616-.092-.616s.42-.139.671-.374c.407-.382-.03-.529-.03-.529s.731-.499.731-.944c0-.34-.449-.298-.751-.193-.373.13-.986.433-1.838 1.028-.726.508-2.22 1.792-3.42 2.98l-1.216-1.243-1.678-1.791-.168-.063-1.066-1.284-1.23 1.38 1.347.978.038.122 1.93 1.498 1.284 1.191c-.466.495-.86.902-1.376 1.376h-.139c-.302 0-.49.143-.612-.738-.126-.881-.185-1.599-.822-1.838-.198-.08-.382-.15-.718-.336.071-.331-.143-.558-.26-.528-.046.012-.201.03-.315.201-.05-.03-.03-.012-.08-.046 0-.008.072-.155.08-.168.113-.21.118-.625-.163-.688-.214-.05-.303.059-.303.059s-.037.067-.08-.05a.483.483 0 0 1-.029-.277c.013-.114-.012-.29-.1-.575-.097-.286-.357-.315-.508-.185-.143.122-.034.277-.18.416-.005.004-.042.004-.05.008-.152-.222-.227-.332-.353-.613-.856-1.921-.302-4.426-.034-5.471.269-1.045 1.116-2.895 1.536-3.814.197-.432.415-.906.566-1.645l1.46-.386c-.1.772-.323 1.67-.524 2.346-.306 1.028-.864 2.626-1.062 3.449-.197.818-.377 2.677.403 3.793a4.906 4.906 0 0 0 2.291 1.775V25.056l.37-.293V36.26c.255.072.486.13.717.18V25.058l.373-.293v11.735c.227.03.462.05.714.059V25.053l.369-.294v11.795c.256-.009.486-.03.713-.059V25.053l.37-.294v11.673a9.87 9.87 0 0 0 .713-.18V25.049l.373-.294v11.37a4.925 4.925 0 0 0 2.29-1.774c.777-1.116.597-2.975.404-3.793-.198-.822-.756-2.42-1.062-3.449-.172-.592-.36-1.154-.474-1.972l1.36-.336c.016.11.037.214.058.32v.033c.122.612.29 1.036.458 1.414.033.08.067.16.1.23.42.92 1.263 2.77 1.536 3.815.264 1.044.818 3.55-.038 5.47a4.551 4.551 0 0 1-.113.244c-.067.126-.134.223-.23.37-.005-.005-.047-.005-.051-.009-.147-.138-.042-.294-.185-.415-.15-.135-.407-.105-.503.184-.093.286-.114.462-.101.575a.533.533 0 0 1-.034.277c-.041.118-.08.05-.08.05s-.092-.109-.301-.058c-.282.067-.277.478-.164.688.004.008.076.155.08.168-.05.033-.034.016-.08.046-.11-.172-.264-.193-.315-.202-.121-.029-.327.193-.264.53m1.674-1.704a.185.185 0 0 1-.189.125c-.059-.012-.046-.138.017-.285.063-.147.097-.013.097-.013s.1.089.075.173Zm-.596 1.065c-.172.227-.21.063-.273-.184-.058-.252.223-.05.223-.05s.222.012.05.234Zm-.83.646c.029-.222.113-.222.188-.15.076.075.114.176-.025.272-.138.097-.184.097-.163-.121Zm.562.794c-.248 0-.386-.084-.386-.336s.222-.223.444-.185c.223.038.235-.109.29.185.05.302-.105.335-.348.335Zm.99-.328c-.059.088-.197.126-.256.03-.063-.101.021-.172.243-.286.223-.109.349-.121.31.1-.037.227-.234.072-.297.16m1.129-.99c-.193.273-.445.147-.722.223-.269.075-.52.31-.83.272-.307-.038-.286-.26-.085-.507.198-.248.45.012.584.037.134.021.41-.1.507-.138.1-.034.088.1.16.071.07-.025.008-.16.05-.21.038-.05.1.076.189.038.088-.038.025-.15.1-.163.076-.013.248.1.047.373m.012-.944c.139-.05.063-.298.063-.298s.21.139.248.05c.033-.084-.172-.247-.235-.373-.059-.126-.126-.285-.038-.323.088-.038.226.31.357.47.138.16.18.31.088.558-.088.247-.693.088-.978.298-.285.214-.474.373-.793.226-.323-.15-.126-.545-.126-.545l.361-.088s.206.247.395.222c.184-.025.306-.323.398-.323.084 0 .122.172.256.122m1.036-7.079c-.18.286-.314.382-.314.382s-.508-.365-.831-1.061a3.235 3.235 0 0 1-.294-1.347l.546-.428s.184.138.478.327c.29.185.445.256.445.256-.025.264.03.58.105.906.042.177.13.374.142.407a3.451 3.451 0 0 1-.28.563m1.56 3.461s-.537-.092-.894-.982c-.235-.574-.356-1.12-.42-2.06a7.18 7.18 0 0 0 .282-.608c.285.34.633.545.86.65.151.642.247.995.482 1.544-.033.881-.31 1.46-.31 1.46m2.76-.004s-.746-.243-1.426-1.124c-.44-.575-.75-1.175-1.074-2.123.03-.05.18-.286.21-.345.113-.251.176-.453.201-.553.37.365.819.545 1.154.633.243.697.575 1.54 1.133 2.258.009 1.074-.197 1.254-.197 1.254Zm2.623-.646s-.73 0-1.531-.776a6.283 6.283 0 0 1-1.465-2.148c.038-.143.122-.433.143-.638a3.09 3.09 0 0 0 .004-.659c.315.126.634.172.894.185.327.68.919 1.808 1.8 2.597.017.067.126.575.155.83.03.303 0 .609 0 .609Zm2.19-1.095s-.742-.097-1.648-.739c-1.012-.717-1.813-1.896-2.065-2.223.113 0 .189-.03.189-.03s.042-.39-.017-.805c-.046-.31-.13-.554-.164-.66.08.01.16.022.236.026.167.223.528.667.62.789.441.575 1.528 1.804 2.619 2.295 0 0 .121.273.205.78.05.32.025.563.025.563m1.863-1.691s-.637.046-1.909-.516c-1.175-.52-2.647-1.863-3.02-2.207.276 0 .889.008 1.174-.11.118.089.147.072.248.143.566.395 1.791 1.104 2.815 1.326.63.772.692 1.364.692 1.364ZM43.313 27c.432.394.617.718.63.801-.705.177-1.423.307-3.252-.428-1.985-.801-2.706-1.548-3.046-1.682.096-.013.428-.05.948-.223.113.076.36.21.91.416.668.243 1.582.516 2.992.558.155.059.58.336.823.558m.293-2.476c.504.265.844.475.894.537-.302.227-.823.525-2.79.433-1.003-.042-1.67-.139-2.283-.353 0 0 .403-.176.487-.314-.021-.047-.088-.244-.394-.53-.256-.234-.626-.364-.84-.415.101-.029.294-.15.294-.15.176.058.562.172 1.242.293a8.618 8.618 0 0 0 2.06.122c.344.03.999.197 1.33.378Zm-.952-1.27c-1.662.226-2.593.138-2.97.054.062-.046.209-.16.221-.206 0 0-.142-.264-.385-.436-.47-.332-.794-.374-.794-.374.496.017 1.25.063 2.09.021.545-.03 1.053-.042 1.804-.285.327.017.932-.017 1.481.092.416.08.667.202.802.244-.29.222-.957.713-2.25.89Zm-8.48.385.982.076.21-.286-.248-.222-.97.126.022.302.004.004Zm-21.285-9.335s-.009-.076-.009-.18c0-.106.013-.244.013-.244s-.298.243-.378.537c-.08.293-.067.36-.067.36s.025-.108.323-.188c.294-.08.684-.055.684-.055l.08-.163s-.126-.076-.323-.088a1.24 1.24 0 0 0-.328.016m19.994.29c.293.08.323.189.323.189s.012-.068-.068-.361c-.08-.294-.377-.537-.377-.537s.012.134.012.243c0 .11-.008.18-.008.18s-.122-.029-.327-.016c-.202.012-.328.088-.328.088l.08.164s.39-.026.688.054m-8.521-8.765c.138.201.26.411.356.587.067-.063.151-.138.231-.21.038-.033.122-.121.168-.171a5.666 5.666 0 0 0-.353-.588 5.627 5.627 0 0 1-.402.382Zm.453-.852c.147-.155.235-.256.348-.39-.055-.08-.1-.13-.172-.214-.067-.075-.126-.147-.185-.214a24.5 24.5 0 0 1-.18.193c-.084.084-.122.113-.197.185.117.121.239.26.335.381.021.03.03.026.05.06Zm-4.095-.038c.092-.121.218-.26.331-.386-.075-.07-.113-.1-.197-.184a5.791 5.791 0 0 1-.176-.193c-.063.071-.126.138-.19.214-.07.084-.117.134-.171.214.113.134.205.235.352.386.021-.03.025-.025.05-.055m-3.918 3.491a1.727 1.727 0 0 0-.223-.28l-.28.322c.083.097.138.189.222.298.071-.075.205-.24.28-.34Zm4.322-2.58a8.904 8.904 0 0 1-.403-.386 5.685 5.685 0 0 0-.353.587l.168.172c.08.072.16.143.227.206.096-.176.214-.386.356-.583m8.316 2.693-.285-.319c-.1.105-.176.206-.222.281.08.101.214.265.28.34.085-.109.143-.201.227-.298M6.973 10.926c.324-.122.512-.08.84 0 .323.08.742-.042.742-.042s-.394.222-.512.583c-.117.357.038.91.533.99.504.084.676.034.91.072.236.037.534.054.534.054s-.21-.239-.378-.377c-.16-.143-.424-.265-.336-.512.072-.202.512-.52.848-.823.377-.34.327-.868.067-1.216-.29-.386-.495-.689-.789-1.075-.315-.42.021-.88.021-.88s.537-.06.978-.14c.44-.079.675-.217.675-.217s-.025.457-.092.877c-.055.318-.302 1.057.118 1.695.335.516 1.367.851 1.699.919.394.08.709.109 1.116.138h.063c.344.03.75.046 1.846.03a22.112 22.112 0 0 0 2.618-.177 9.87 9.87 0 0 0 1.339-.264 4.24 4.24 0 0 0 1.959-1.25s.462.2.974.197c.415 0 .918-.193.918-.193s.814.839 1.52 1.103c.603.227 1.237.37 1.93.453l.079.017c.65.088 1.46.151 2.572.168 1.09.013 1.498 0 1.842-.03h.063a9.027 9.027 0 0 0 1.116-.142c.327-.067 1.36-.403 1.7-.915.415-.638.167-1.376.117-1.695-.072-.42-.093-.877-.093-.877s.231.139.672.218c.44.08.977.139.977.139s.336.457.021.877c-.293.39-.499.692-.788 1.078-.26.348-.31.877.067 1.217.34.302.78.625.847.822.088.252-.172.374-.335.512-.164.139-.37.382-.37.382s.298-.017.533-.055c.231-.041.403.013.907-.07.499-.085.654-.639.537-.995-.118-.357-.512-.58-.512-.58s.42.122.747.043c.327-.08.511-.122.835 0 .327.121.348.31.348.31s.184-.37.113-.747c-.067-.382-.55-.591-1.061-.63-.512-.037-.231-.377-.021-.578.21-.202.755-.604.62-1.267-.13-.642-.73-.848-1.502-1.045-.767-.197-.851-.86-1.246-1.175-.696-.55-1.305-.13-1.535.046-.235.18-.605.164-.86.244-.256.08-.491.243-.768.73-.407.717.163 1.477.444 2.236.277.755-.075 1.343-.986 1.536-.34.071-.663.08-.696.071.012-.071.03-.155.042-.235.02-.1.122-.445.302-.784.185-.34.373-.987.373-.987.034-.457-.277-.776-.436-.855-.164-.084-.403-.147-.751-.252a1.24 1.24 0 0 1-.457-.231.497.497 0 0 0-.025-.529h.088v-.046l-.323-.507.52.113-.009-.575-.54.122.13-.567-.597-.017.147.617-.528-.16-.009.563.487-.143-.281.554v.042h.096s-.008.017-.02.034a.516.516 0 0 0-.072.251c0 .093.02.168.063.24-.05.046-.193.155-.466.235-.344.104-.587.172-.747.256a.92.92 0 0 0-.436.855c.042.458.189.65.373.986.185.34.281.68.302.785.013.059.017.097.034.185-.038 0-.247-.013-.285-.017-.298-.038-.81-.105-1.246-.294l-.017-.012c-.944-.42-1.729-1.15-2.018-1.599-.315-.5-.282-.76-.252-.965.025-.206.13-.508.13-.508.08-.251.214-.533.407-.89.298-.54.512-.897.512-1.464 0-.738-.273-1.103-.642-1.35-.244-.164-.588-.215-1.141-.382-.437-.13-.752-.344-.831-.416.063-.113.122-.21.122-.348a.791.791 0 0 0-.114-.407c-.017-.038-.033-.059-.033-.059h.088v-.071l-.491-.684.73.097-.03-.743-.667.155L23.2 0h-.92l.181.692-.726-.147v.802l.764-.147-.55.688v.076h.076a.793.793 0 0 0-.139.453c0 .147.021.302.122.449-.084.071-.315.218-.797.348-.562.151-.89.18-1.209.373-.352.21-.612.668-.579 1.402.03.63.445 1.212.722 1.775.285.562.302.83.332.994.02.13.016.332 0 .47-.034.235-.06.327-.244.587-.382.533-.923.94-1.846 1.406-.533.268-1.053.373-1.246.373-.034 0-.248.021-.285.017.016-.088.02-.126.033-.184.021-.101.118-.441.302-.78.18-.34.332-.53.37-.987a.92.92 0 0 0-.437-.856c-.16-.084-.407-.15-.751-.252a1.199 1.199 0 0 1-.461-.239.507.507 0 0 0 .062-.239.524.524 0 0 0-.067-.252l-.02-.033h.092v-.042l-.277-.554.486.147-.012-.562-.525.155.147-.617-.6.017.13.566-.541-.117-.013.575.517-.114-.328.508v.046h.093a.496.496 0 0 0-.02.529c-.052.046-.194.15-.459.23-.344.106-.591.168-.75.252-.169.084-.475.399-.437.856.038.458.184.646.369.986.185.34.281.68.302.785.013.08.034.164.042.235-.03.008-.352 0-.692-.071-.906-.193-1.263-.777-.986-1.536.28-.76.847-1.519.444-2.236-.276-.491-.507-.655-.767-.73-.252-.08-.626-.068-.856-.244-.235-.18-.844-.6-1.536-.046-.394.315-.478.978-1.246 1.175-.768.197-1.368.398-1.498 1.045-.134.658.411 1.065.621 1.267.21.201.49.537-.021.579-.512.042-.994.252-1.062.63-.07.377.118.746.118.746s.021-.189.348-.31m26.958-4.452c.294-.042.416-.11.73-.269.315-.16.55-.373.902-.235.303.118.483.428.718.73s.5.525.717.617c.219.088.71.139 1.007.302.424.227.53.688.168 1.225-.369.542-.747.726-.675.978.075.277.403.411.675.445.756.096.768.533.768.533s-.315-.315-.86-.152c-.21.068-.613.139-.835.089-.218-.05-.407-.202-.407-.202s-.189.256-.076.403c.122.151.252.23.395.411.155.189.394.504-.11.785-.293.163-.62.109-.62.109s.42-.126.323-.554c-.072-.306-.5-.587-.785-.784-.445-.307-.377-.705-.16-1.066.219-.365.626-.79.907-1.284.256-.45.05-.642.05-.642s.986-.189.873.591c-.042.298 0 .588.18.374.177-.214.366-.697.047-.96-.323-.261-.634-.303-1.1-.374-.465-.076-1.229-.076-1.829-.349-.6-.277-.483-.243-.789-.36-.575-.227-.927.121-.927.121s.23-.407.713-.478m-.663 1.603c-.172-.428.135-.739.508-.827a.522.522 0 0 1 .403.08s0 .218.017.319c.012.1.08.528.176.982.16.73-.093 1.137-.55 1.535-.268.231-.533.302-.533.302s.143-.126.248-.356c.15-.323.243-.609.126-.999-.11-.365-.202-.575-.39-1.032m-1.93 2.492c-.013.084-.013.126-.013.126s-.39-.092-1.116-.113c-.722-.021-1.146.105-1.146.105v-.101c0-.038-.008-.13-.008-.13s.516-.176 1.124-.193c.613-.013 1.167.214 1.167.214s-.004.038-.013.092m-2.026-.852s.239-.07.402 0c.164.076.307.374.307.374s-.281.042-.424-.034c-.139-.071-.29-.34-.29-.34m.903.277s-.143-.205-.139-.444c.009-.235.155-.433.155-.433s.164.248.139.458c-.025.21-.155.42-.155.42Zm.524-.226c.168-.072.365.02.365.02s-.096.198-.24.274c-.137.07-.515.08-.515.08s.222-.299.386-.374m.042-1.989.059.03s-.017.18-.05.432c.012.016.024.037.045.054l.294-.277c-.105-.109-.172-.176-.172-.176l.21.046.218.034s.088.063.31.365l.118-.151s.092.054.147.138c.05.084.038.113.038.113-.026.038-.093.126-.126.19.13.26.163.318.168.322 0 0-.026.076-.072.185-.05.109-.088.138-.088.138s-.096-.235-.193-.436c-.075.084-.189.264-.256.331.193.345.214.512.214.517 0 0-.02.029-.075.13-.072.125-.11.243-.11.243s-.054-.352-.255-.71a3.945 3.945 0 0 1-.277.22l-.256-.207s.15-.1.356-.293c-.138-.189-.243-.328-.297-.403-.076.415-.135.659-.135.659l-.264-.135s.042-.26.1-.713c.047-.407.047-.793.047-.793l.302.151V7.8Zm-.541-.906a.26.26 0 0 1 .256.26.257.257 0 0 1-.256.256.26.26 0 0 1-.256-.256.26.26 0 0 1 .256-.26Zm-1.465 1.905a9.806 9.806 0 0 0-.193.436s-.042-.025-.088-.138c-.05-.11-.075-.185-.075-.185s.033-.059.167-.323a3.5 3.5 0 0 0-.13-.189s-.012-.03.042-.113c.055-.088.147-.139.147-.139l.118.151c.222-.302.306-.356.31-.365l.214-.033.21-.046s-.067.067-.172.176l.294.277s.025-.034.041-.05c-.037-.26-.05-.445-.05-.445l.038-.009.298-.126s.017.386.067.793c.055.453.063.667.063.667l-.218.143s-.059-.239-.134-.65c-.055.071-.16.21-.294.398.201.198.352.294.352.294l-.256.206-.272-.219c-.202.357-.256.71-.256.71s-.038-.118-.11-.244l-.075-.13c0-.004.021-.172.218-.516-.071-.067-.184-.247-.256-.331Zm-6.054.264c-.42.008-.73-.13-.73-.13l.293-.378s.193.231.445.231.403-.252.403-.252l.29.386s-.277.139-.706.147m.063-1.053c-1.2.034-1.883.185-1.883.185s.012-.122.012-.21-.025-.155-.025-.155.927-.374 1.938-.353c1.016.021 1.876.319 1.876.319s-.013.155-.013.222v.164s-.705-.21-1.909-.176m-.033-3.294a.27.27 0 0 1-.269-.268.27.27 0 0 1 .269-.269c.146 0 .264.122.264.269a.27.27 0 0 1-.264.268Zm.18.436c0 .101-.08.18-.18.18a.183.183 0 1 1 .18-.18Zm-.163.42s.243.319.255.713c.013.395-.23.739-.23.739s-.21-.344-.256-.693c-.042-.352.235-.759.235-.759m-.013-1.599a.391.391 0 0 1-.394-.394c0-.218.172-.394.394-.394.222 0 .39.176.39.394a.393.393 0 0 1-.39.394Zm-1.611 2.619s.516-.038.793.08c.277.121.52.549.52.549s-.591.042-.826-.08c-.231-.121-.487-.55-.487-.55Zm1.896.646s.29-.462.563-.583c.276-.122.696-.147.696-.147s-.252.444-.487.566c-.23.122-.776.164-.776.164m2.157 2.21c.696.605 1.62 1.033 1.62 1.033s-1.15-.26-1.977-.801c-.768-.5-1.12-1.12-1.12-1.12l.75.033s.169.365.731.856m-1.305-4.733s.034-.059.113-.13c-.054-.055-.08-.113-.08-.113l.043-.42s.126.172.268.319c.03-.03.017-.004.05-.038.114-.121.223-.243.311-.352-.31-.323-.524-.508-.524-.508l.239.055.319.088s.046 0 .167.126c.042-.06.06-.063.06-.063l.26.117s.008.025-.106.16c.067.075.143.163.231.272.05.063.076.088.122.147.117-.15.168-.239.168-.239l.117.319s-.033.054-.122.168c.143.293.21.466.21.466l-.113.356s-.096-.252-.306-.583c-.105.13-.197.227-.34.382.155.222.29.44.36.566.14-.155.223-.243.223-.243l-.206.386.009.008-.189.353-.13.134c-.046.05-.13.134-.214.21.059.121.088.197.088.197l-.143.453s-.285-.717-.54-1.116c-.286-.44-.53-.7-.53-.7l.08-.34s.126.096.411.474c.084-.076.235-.235.395-.395-.013-.017-.009 0-.021-.017a8.88 8.88 0 0 0-.378-.432c-.21.193-.39.344-.39.344l.08-.407.008-.004Zm-.457-1.54.306.185.067.012s-.05.571-.163 1.247c-.139.75-.244 1.191-.244 1.191l-.252-.134s.06-.394.143-1.146c.08-.675.147-1.355.147-1.355m-.713-1.254c.277 0 .495.226.495.503a.5.5 0 0 1-.495.504.505.505 0 0 1-.504-.504.5.5 0 0 1 .504-.503Zm-.894 1.456.306-.19a62.088 62.088 0 0 0 .286 2.506l-.252.13s-.11-.44-.244-1.192a14.414 14.414 0 0 1-.167-1.246l.067-.013.004.005Zm-1.38 3.088-.13-.13-.19-.353s0-.008.005-.012l-.206-.386.223.243c.071-.126.205-.348.36-.566-.142-.156-.234-.252-.344-.382a3.855 3.855 0 0 0-.302.583l-.109-.357s.067-.176.206-.465a2.139 2.139 0 0 1-.122-.168l.118-.315s.046.084.167.235c.042-.059.072-.088.122-.151.088-.105.164-.193.23-.269-.112-.138-.104-.163-.104-.163l.26-.114s.017.009.059.063c.122-.121.168-.125.168-.125l.323-.089.239-.054s-.214.18-.524.508c.088.105.197.235.31.352.034.034.021.013.05.038.147-.147.273-.32.273-.32l.042.425s-.025.058-.08.113c.08.071.114.13.114.13l.08.407s-.181-.155-.39-.348c-.102.109-.232.252-.378.432-.013.017-.009 0-.021.017.159.16.31.319.394.394.285-.377.411-.474.411-.474l.08.344s-.244.264-.529.7c-.256.4-.541 1.117-.541 1.117l-.143-.45s.034-.075.093-.196c-.08-.08-.164-.16-.21-.214m-.168 2.987c.562-.487.73-.856.73-.856l.751-.033s-.357.62-1.12 1.12c-.831.541-1.977.801-1.977.801s.924-.428 1.62-1.032m-3.613 1.091v.1s-.427-.125-1.145-.104c-.726.02-1.112.109-1.112.109s0-.038-.017-.126l-.012-.092s.558-.227 1.166-.214c.609.012 1.129.189 1.129.189s-.009.096-.009.134m-1.28-.453s-.381-.009-.52-.08c-.138-.071-.234-.273-.234-.273s.197-.092.365-.02c.163.07.39.373.39.373Zm-.02-.563c-.025-.21.138-.457.138-.457s.147.193.155.432c.009.24-.138.445-.138.445s-.126-.206-.155-.42Zm.344.517s.143-.298.306-.374c.164-.075.407 0 .407 0s-.15.269-.293.34c-.139.071-.42.034-.42.034Zm.377-2.3.038.009s-.017.188-.05.444a.444.444 0 0 0 .042.05l.294-.276c-.105-.11-.172-.176-.172-.176l.21.042.218.033s.088.063.31.365l.117-.155s.097.054.147.138c.055.084.042.114.042.114-.025.037-.092.126-.126.188.13.26.164.32.164.32s-.025.075-.075.184a.398.398 0 0 1-.089.138s-.096-.239-.193-.436c-.07.088-.184.269-.256.332.194.344.215.511.215.516l-.076.13c-.067.121-.11.243-.11.243s-.054-.352-.26-.709c-.167.138-.272.218-.272.218l-.256-.205s.151-.097.357-.294c-.135-.185-.24-.323-.294-.399-.076.411-.134.65-.134.65l-.223-.142s.013-.214.067-.663c.047-.407.063-.793.063-.793l.298.13.005.004Zm-.591-.919c.143 0 .256.114.256.256a.26.26 0 0 1-.256.26.26.26 0 0 1-.256-.26c0-.142.113-.256.256-.256Zm-1.406 2.753s.021-.172.214-.516c-.071-.067-.18-.248-.256-.332-.096.202-.193.437-.193.437s-.042-.03-.088-.139a1.362 1.362 0 0 1-.071-.184s.034-.06.168-.32a2.364 2.364 0 0 0-.13-.188s-.013-.03.042-.113c.05-.084.146-.139.146-.139l.122.155c.223-.302.302-.356.31-.365l.219-.033.21-.042s-.068.067-.172.176l.293.277s.03-.038.046-.055a12.11 12.11 0 0 1-.05-.432l.055-.03.302-.15s0 .39.05.793c.05.453.097.713.097.713l-.26.134s-.06-.243-.139-.658c-.055.071-.16.21-.298.398.201.197.353.294.353.294l-.256.206-.273-.219c-.201.353-.26.71-.26.71s-.038-.122-.11-.244l-.075-.13M12.45 8.027c-.185.461-.281.67-.39 1.032-.114.39-.025.671.126.994.109.23.251.357.251.357s-.268-.072-.533-.302c-.461-.399-.713-.802-.553-1.532.096-.453.163-.88.176-.982.017-.1.017-.318.017-.318s.176-.13.402-.08c.37.088.68.403.504.826m-4.897 2.19c.269-.033.6-.167.676-.444.071-.252-.306-.437-.676-.978-.365-.537-.26-.994.164-1.225.302-.164.789-.214 1.011-.302.218-.088.483-.315.718-.613.235-.302.415-.608.717-.726.348-.138.588.072.902.235.315.156.437.223.735.269.478.071.709.482.709.482s-.353-.348-.928-.121c-.306.117-.188.08-.788.356-.6.277-1.36.277-1.83.353-.466.075-.776.113-1.095.373-.323.265-.13.751.046.965.172.214.218-.071.177-.373-.114-.78.872-.587.872-.587s-.205.188.055.637c.285.495.688.92.91 1.284.219.365.281.764-.16 1.07-.284.197-.712.478-.784.785-.096.428.323.554.323.554s-.331.058-.625-.105c-.495-.281-.256-.592-.105-.785.143-.176.273-.256.39-.411.118-.151-.07-.407-.07-.407s-.19.151-.412.201c-.218.05-.625-.025-.835-.088-.545-.168-.86.151-.86.151s.012-.436.768-.533m7.15-1.728-.286-.323a2.27 2.27 0 0 0-.222.28c.084.101.21.265.28.34.08-.108.14-.2.223-.297m16.83.033a1.564 1.564 0 0 0-.223-.28l-.281.318c.084.097.138.189.222.298.072-.076.202-.24.282-.34"/></svg>