<svg xmlns="http://www.w3.org/2000/svg" width="234" height="61" fill="none"><path fill="#fff" d="M102.722 29.133h-7.81v-5.084h-2.13v12.146h2.13v-5.172h7.81v5.172h2.131V24.049h-2.131v5.084ZM80.57 24.049c-.997 2.024-2.95 6.073-5.902 12.146h2.314c.308-.673.737-1.595 1.27-2.744h7.281c.408.864.831 1.765 1.296 2.744h2.314c-.95-2.025-2.904-6.073-5.856-12.146h-2.716ZM79.078 31.7a3251.38 3251.38 0 0 1 2.815-5.98c.653 1.367 1.594 3.37 2.821 5.98h-5.636ZM139.672 25.902c-.408.632-1.228 1.843-2.45 3.686.407.632 1.227 1.844 2.45 3.687h2.225c-.407-.632-1.228-1.843-2.497-3.686.407-.632 1.228-1.844 2.497-3.687h-2.225ZM120.019 24.678c-.543-.269-1.134-.45-1.771-.631a10.624 10.624 0 0 0-2.09-.223c-.726 0-1.405.088-2.042.223a7.465 7.465 0 0 0-1.771.631c-.998.539-1.818 1.258-2.361 2.206-.59.942-.862 2.024-.862 3.24 0 .633.094 1.259.272 1.844.183.585.407 1.077.726 1.574a5.86 5.86 0 0 0 2.45 2.112c1.045.497 2.225.766 3.583.766.726 0 1.452-.088 2.09-.222a7.48 7.48 0 0 0 1.771-.632 6.148 6.148 0 0 0 2.361-2.205c.59-.948.862-2.025.862-3.241a6.419 6.419 0 0 0-.862-3.241 6.153 6.153 0 0 0-2.356-2.2Zm-.319 8.636c-.909.808-2.089 1.217-3.542 1.217-1.452 0-2.632-.404-3.494-1.217-.862-.808-1.317-1.843-1.317-3.194 0-1.352.455-2.387 1.317-3.195.862-.807 1.995-1.216 3.494-1.216 1.5 0 2.68.404 3.542 1.216.862.808 1.317 1.843 1.317 3.195 0 1.351-.455 2.386-1.317 3.194Z"/><path fill="#fff" d="M137.993 25.902h-2.226c-.407.632-1.227 1.843-2.45 3.686.408.632 1.228 1.844 2.45 3.687h2.226c-.408-.632-1.228-1.843-2.497-3.686a170.61 170.61 0 0 1 2.497-3.687ZM150.79 24.049c-.998 2.024-2.952 6.073-5.903 12.146h2.314c.308-.673.736-1.595 1.269-2.744h7.282c.408.864.836 1.765 1.296 2.744h2.314c-.951-2.025-2.905-6.073-5.856-12.146h-2.716Zm-1.494 7.652c.773-1.647 1.713-3.645 2.815-5.98.653 1.367 1.593 3.37 2.821 5.98h-5.636ZM227.643 25.902h-2.225c.428.632 1.259 1.87 2.481 3.686l-2.481 3.687h2.225c.408-.632 1.228-1.843 2.45-3.686-.407-.627-1.222-1.844-2.45-3.687Z"/><path fill="#fff" d="M231.551 25.902h-2.226c.423.632 1.254 1.87 2.481 3.692-.501.745-1.326 1.972-2.481 3.686h2.226c.407-.632 1.227-1.843 2.449-3.686-.407-.632-1.227-1.849-2.449-3.692ZM218.064 24.049v.046h-6.488v12.146h2.131V31.79h4.357c1.405 0 2.45-.363 3.27-1.082.815-.72 1.228-1.62 1.228-2.79s-.408-2.072-1.228-2.791c-.82-.715-1.912-1.077-3.27-1.077Zm1.724 5.312c-.455.362-1.045.538-1.771.538h-4.268v-3.96h4.268c.773 0 1.363.18 1.771.538.407.316.637.854.637 1.44 0 .584-.23 1.081-.637 1.444ZM172.988 30.169a2.416 2.416 0 0 0-.501-.182c-.183-.046-.366-.134-.543-.134.088-.047.182-.135.271-.135v.088c.089-.046.136-.088.225-.134.543-.316.909-.72 1.133-1.17.225-.497.366-.539.366-1.44 0-.9-.272-1.62-.909-2.159-.637-.538-1.499-.807-2.633-.807h-7.898v12.146h8.17c1.316 0 2.361-.316 3.04-.943.679-.631 1.045-1.44 1.045-2.381 0-.632-.089-1.17-.407-1.62a3.302 3.302 0 0 0-1.359-1.13Zm-3.087-4.318c.59 0 1.045.134 1.364.404.318.269.496.497.496 1.082 0 .585-.225 1.035-.591 1.35a2.255 2.255 0 0 1-1.452.498h-5.041v-3.329h5.224v-.005Zm2.137 8.185c-.366.316-.909.45-1.588.45h-5.767l-.047.047v-3.691h5.312c.862 0 1.499.134 1.954.497.454.315.679.854.679 1.392 0 .544-.183.994-.543 1.305ZM204.172 24.678c-.543-.269-1.133-.45-1.771-.631a10.622 10.622 0 0 0-2.089-.223c-.726 0-1.405.088-2.043.223a7.48 7.48 0 0 0-1.771.631c-.997.539-1.817 1.258-2.361 2.206-.59.942-.862 2.024-.862 3.24 0 .633.094 1.259.272 1.844.183.585.407 1.077.726 1.574a5.86 5.86 0 0 0 2.45 2.112c1.045.497 2.225.766 3.584.766.726 0 1.452-.088 2.089-.222a7.465 7.465 0 0 0 1.771-.632 6.134 6.134 0 0 0 2.361-2.205c.59-.948.862-2.025.862-3.241a6.419 6.419 0 0 0-.862-3.241 6.11 6.11 0 0 0-2.356-2.2Zm-.318 8.636c-.909.808-2.09 1.217-3.542 1.217s-2.633-.404-3.495-1.217c-.862-.808-1.316-1.843-1.316-3.194 0-1.352.454-2.387 1.316-3.195.862-.807 1.996-1.216 3.495-1.216s2.68.404 3.542 1.216c.861.808 1.316 1.843 1.316 3.195 0 1.351-.455 2.386-1.316 3.194ZM177.845 25.939h5.129v10.26h2.132V25.94h5.041v-1.89h-12.302v1.89ZM55.043 60.247H5.746C2.576 60.247 0 57.69 0 54.552V5.695C0 2.552 2.58 0 5.746 0h49.297c3.17 0 5.746 2.558 5.746 5.695v48.857c0 3.143-2.575 5.695-5.746 5.695ZM40.839 41.216H24.076a.99.99 0 0 0-.851.486l-.966 1.657a.98.98 0 0 0 0 .974c.172.3.5.486.85.486h17.725a.977.977 0 0 0 .982-.973v-1.657a.972.972 0 0 0-.977-.973ZM29.964 12.29a.956.956 0 0 0 0-.974l-.967-1.656a.985.985 0 0 0-.851-.487.99.99 0 0 0-.852.487L7.664 43.359a.956.956 0 0 0 0 .974c.172.3.5.486.85.486h1.928a.99.99 0 0 0 .852-.486l18.67-32.042Zm23.162 26.284-5.11-8.77a.984.984 0 0 0-.85-.486h-1.928a.991.991 0 0 0-.852.486.98.98 0 0 0 0 .974l5.11 8.77c.171.3.5.486.85.486h1.928c.35 0 .674-.186.852-.486a.956.956 0 0 0 0-.974Zm-3.25 8.895H16.769l18.675-32.052 6.274 10.763c.172.3.502.487.851.487h1.928a.99.99 0 0 0 .851-.487.98.98 0 0 0 0-.973L36.295 9.67a.985.985 0 0 0-.852-.487.99.99 0 0 0-.851.487L11.325 49.613a.98.98 0 0 0 0 .974c.173.3.502.486.852.486h37.705a.977.977 0 0 0 .982-.973v-1.657a.988.988 0 0 0-.987-.973Z"/></svg>