<svg width="92" height="60" viewBox="0 0 92 60" fill="none" xmlns="http://www.w3.org/2000/svg">
<path d="M91.6599 0.000502355H91.9992V47.1945C91.9065 47.2176 91.812 47.21 91.718 47.21C90.5182 47.2105 89.3184 47.2105 88.1187 47.2103C87.888 47.2103 87.7723 47.0964 87.7716 46.8687C87.7711 45.8014 87.7721 44.7344 87.7708 43.6672C87.7708 43.4542 87.7686 43.2414 87.7359 43.0292C87.571 41.9584 87.0249 41.1592 86.0637 40.6453C85.5384 40.3645 84.9694 40.2836 84.3891 40.2826C80.7647 40.277 77.1402 40.2806 73.516 40.2778C73.2768 40.2778 73.0365 40.2906 72.8038 40.326C71.5879 40.5109 70.7365 41.176 70.2635 42.3141C70.0866 42.7398 70.0612 43.1864 70.0662 43.6431C70.078 44.7352 70.0707 45.8276 70.0697 46.9199C70.0697 47.1957 70.0544 47.2098 69.7848 47.2098C68.6667 47.2103 67.5486 47.21 66.4305 47.2098C66.211 47.2098 66.1009 47.0967 66.1002 46.8705C66.0997 45.7844 66.1002 44.6985 66.1 43.6124C66.1 43.4117 66.095 43.2118 66.0638 43.0121C65.9004 41.9617 65.3551 41.1788 64.426 40.6629C63.8947 40.368 63.3124 40.2826 62.718 40.2818C59.3575 40.277 55.9969 40.2783 52.6363 40.2811C52.2101 40.2816 51.7843 40.2738 51.3574 40.3057C50.8844 40.3408 50.4378 40.4468 50.0292 40.6802C48.9945 41.2712 48.423 42.1601 48.4029 43.3597C48.3833 44.5395 48.3989 45.7201 48.3981 46.9001C48.3981 47.2007 48.3886 47.2095 48.0948 47.2095C46.8448 47.2098 45.5947 47.2098 44.3447 47.2095C44.0147 47.2095 44.0139 47.209 44.0137 46.871C44.0132 45.7597 44.0124 44.6488 44.0142 43.5376C44.0147 43.2605 43.9979 42.985 43.9282 42.7165C43.6646 41.699 43.0652 40.963 42.0924 40.542C41.6222 40.3386 41.1238 40.2821 40.6207 40.2816C37.2036 40.2773 33.7864 40.2783 30.3693 40.2808C30.0059 40.2811 29.643 40.2778 29.2786 40.3057C28.7539 40.3459 28.2653 40.4767 27.8205 40.756C26.8482 41.3664 26.3289 42.2438 26.3151 43.3947C26.3013 44.5559 26.3124 45.7173 26.3118 46.8785C26.3118 47.2093 26.3106 47.2095 25.9733 47.2095C24.7296 47.2095 23.4858 47.2098 22.2421 47.2095C21.9611 47.2095 21.9578 47.2063 21.9578 46.9255C21.9573 45.8205 21.9578 44.7159 21.9576 43.6109C21.9576 43.3469 21.9365 43.084 21.8817 42.8265C21.6934 41.9421 21.2215 41.2536 20.454 40.7666C19.8875 40.4072 19.2584 40.2831 18.6043 40.2821C14.9296 40.2765 11.2548 40.2786 7.58036 40.2813C7.36775 40.2813 7.15313 40.2949 6.94328 40.3268C6.4791 40.3969 6.04206 40.5496 5.65102 40.8156C4.74603 41.431 4.26175 42.2905 4.23913 43.3798C4.21475 44.5531 4.23385 45.7273 4.2336 46.9013C4.2336 47.1066 4.12805 47.2095 3.91695 47.2098C2.76743 47.2098 1.61792 47.2098 0.468408 47.2098C0.424428 47.2098 0.380447 47.2108 0.336467 47.2088C0.182663 47.2013 0.154767 47.1746 0.14572 47.0159C0.140693 46.9282 0.143206 46.8401 0.143206 46.7524C0.143206 31.31 0.143206 15.8679 0.143206 0.425494C0.143206 0.350141 0.143458 0.274788 0.14396 0.199435C0.144463 0.129859 0.147227 0.0610361 0.187186 0H0.526461C0.622463 0.039686 0.725251 0.0210989 0.824269 0.0329042C1.24045 0.0828885 1.65713 0.129356 2.07381 0.176578C2.33517 0.206217 2.59654 0.234349 2.85791 0.263234C3.16275 0.296892 3.46735 0.331554 3.77244 0.364207C4.05894 0.394851 4.34544 0.422229 4.63194 0.45237C4.94306 0.485024 5.25419 0.520188 5.56532 0.552088C5.8581 0.581978 6.15139 0.607598 6.44417 0.637991C6.87366 0.6827 7.30241 0.733187 7.73216 0.775133C8.06867 0.807786 8.40668 0.82562 8.74294 0.860031C9.27221 0.914286 9.80198 0.963014 10.3318 1.01149C10.4939 1.02631 10.6565 1.03611 10.8186 1.05218C11.1611 1.08634 11.5031 1.12301 11.8459 1.1529C12.2078 1.1843 12.5705 1.20515 12.9324 1.2368C13.4372 1.281 13.9414 1.33677 14.4468 1.3762C14.915 1.41262 15.3829 1.45105 15.8509 1.48823C16.3502 1.52766 16.8498 1.56257 17.3492 1.60126C17.8486 1.63994 18.3482 1.67535 18.8475 1.71353C19.3844 1.75473 19.9219 1.78863 20.459 1.82606C20.8586 1.85369 21.2589 1.87956 21.659 1.90191C22.0594 1.92452 22.4589 1.95366 22.859 1.97702C23.2717 2.00088 23.6841 2.0275 24.0968 2.05212C24.5406 2.07849 24.9847 2.10462 25.4287 2.12747C25.9105 2.15234 26.392 2.17771 26.8735 2.20283C27.3739 2.2287 27.8745 2.25733 28.3749 2.27818C28.9446 2.30179 29.5143 2.31912 30.0836 2.35629C30.3711 2.37513 30.6591 2.36333 30.9478 2.38995C31.2778 2.42035 31.6111 2.39824 31.9436 2.42914C32.2735 2.45953 32.6068 2.43542 32.9395 2.46556C33.3007 2.49821 33.6656 2.47259 34.0295 2.50399C34.416 2.53714 34.8058 2.50926 35.1948 2.54116C35.619 2.57582 36.0463 2.54895 36.4733 2.57859C37.0171 2.61651 37.5635 2.5821 38.1096 2.61576C38.7916 2.65771 39.4762 2.61802 40.1605 2.65344C41.0185 2.69765 41.88 2.62757 42.7388 2.6979C45.3132 2.6778 47.8877 2.73381 50.4622 2.66801C51.5159 2.64113 52.571 2.66801 53.625 2.62581C54.0761 2.60772 54.5269 2.63083 54.9793 2.59592C55.4787 2.55724 55.9818 2.5929 56.4837 2.55498C56.9207 2.52182 57.3605 2.55623 57.7998 2.51956C58.2301 2.48364 58.6643 2.52031 59.0971 2.47987C59.4271 2.44923 59.7603 2.47661 60.0928 2.44396C60.4225 2.41181 60.7563 2.42261 61.0883 2.40754C61.6892 2.37991 62.29 2.3573 62.8912 2.32967C63.4418 2.3043 63.9927 2.28044 64.5433 2.25432C65.0502 2.2302 65.5569 2.20534 66.0638 2.17896C66.533 2.1546 67.0019 2.13049 67.4712 2.10361C67.8964 2.07925 68.3214 2.05338 68.7466 2.02876C69.1718 2.00414 69.5968 1.97777 70.022 1.9529C70.4095 1.9303 70.7968 1.90166 71.1841 1.87805C71.7405 1.84414 72.2961 1.80245 72.8521 1.76452C73.3768 1.72885 73.9013 1.68917 74.4258 1.65174C74.9317 1.61557 75.4376 1.57991 75.943 1.5367C76.336 1.5033 76.7311 1.49024 77.1234 1.45005C77.292 1.43272 77.4609 1.42644 77.6293 1.41162C78.0095 1.37796 78.3895 1.34053 78.7698 1.30838C79.1254 1.27824 79.4822 1.26091 79.8373 1.22399C80.3666 1.16873 80.8966 1.12477 81.4264 1.07655C81.5885 1.06173 81.7506 1.04741 81.9129 1.03284C82.2683 1.00094 82.6229 0.963265 82.9783 0.929356C83.2836 0.90022 83.5895 0.875102 83.8948 0.845212C84.2374 0.811805 84.5796 0.774882 84.9222 0.740722C85.2087 0.712088 85.4957 0.685965 85.7822 0.656829C86.1122 0.623171 86.4419 0.58675 86.7716 0.552339C87.0518 0.523203 87.3323 0.497331 87.6125 0.466436C88.0169 0.421978 88.421 0.373752 88.8251 0.32854C89.0988 0.297896 89.3732 0.271774 89.6469 0.240628C90.045 0.195416 90.4428 0.148446 90.8406 0.101224C91.1138 0.0688226 91.3868 0.0339089 91.6599 0.000502355ZM51.6021 22.9051C51.5823 23.3572 51.6308 23.8998 51.7215 24.4391C51.861 25.2679 52.1183 26.0599 52.5074 26.8046C53.1249 27.9872 53.9921 28.9602 55.0519 29.7638C56.4344 30.8119 58.0114 31.3321 59.7304 31.4303C60.4248 31.47 61.1202 31.4391 61.8123 31.3324C62.5869 31.2131 63.3345 31.0061 64.0425 30.6768C65.9341 29.7972 67.3402 28.4154 68.2545 26.5402C68.7343 25.5563 68.964 24.5056 69.0278 23.4195C69.0685 22.7235 69.027 22.0278 68.9165 21.3383C68.7672 20.4074 68.4787 19.5205 68.02 18.6961C67.2012 17.224 66.0565 16.0721 64.5818 15.2497C63.4541 14.6208 62.2363 14.2993 60.9571 14.2224C60.1494 14.1737 59.3406 14.2056 58.5399 14.3616C57.74 14.5176 56.9732 14.764 56.2492 15.1385C55.3427 15.6074 54.545 16.217 53.8539 16.9695C53.3111 17.5608 52.8467 18.2068 52.4878 18.9227C51.8758 20.1439 51.5795 21.4418 51.6021 22.9051ZM28.2045 22.7642C28.2045 23.034 28.2045 23.304 28.2045 23.5738C28.2045 25.9898 28.2045 28.4059 28.2047 30.8217C28.2047 31.044 28.2171 31.0611 28.4174 31.0586C29.8669 31.0397 31.3165 31.094 32.7664 31.03C33.2426 31.0089 33.7161 30.981 34.1886 30.9162C35.0154 30.8029 35.81 30.5859 36.5507 30.1965C37.6786 29.6038 38.4152 28.6925 38.7348 27.4572C38.8861 26.872 38.9442 26.2777 38.8954 25.6693C38.8565 25.1818 38.7602 24.7118 38.569 24.2657C38.137 23.2585 37.4011 22.558 36.3815 22.1549C36.3232 22.1317 36.2634 22.1111 36.2079 22.0823C36.1106 22.0313 36.1056 21.9793 36.1898 21.9155C36.2297 21.8853 36.2747 21.862 36.3169 21.8346C37.0601 21.3523 37.5572 20.6897 37.7705 19.8272C37.8746 19.4065 37.9181 18.9807 37.8811 18.5422C37.8477 18.1463 37.8007 17.7575 37.6846 17.3777C37.5122 16.8143 37.2204 16.3203 36.7962 15.9128C36.4403 15.5712 36.0234 15.3148 35.5728 15.1126C34.5826 14.668 33.5311 14.5062 32.4603 14.4854C31.1421 14.4598 29.823 14.4791 28.5043 14.4794C28.3048 14.4794 28.2049 14.5801 28.2047 14.7815C28.2047 17.4423 28.2045 20.1035 28.2045 22.7642ZM23.62 31.0596C24.0847 31.0596 24.5496 31.0596 25.0143 31.0596C25.0583 31.0596 25.1023 31.0591 25.1462 31.0588C25.2221 31.0586 25.2513 31.0249 25.2216 30.9516C25.1887 30.8702 25.1543 30.7896 25.1206 30.7084C24.2762 28.6817 23.4318 26.6549 22.5874 24.6279C21.7673 22.6592 20.9473 20.6905 20.127 18.7218C19.5648 17.3724 19.0001 16.0244 18.4422 14.6733C18.3826 14.5289 18.3024 14.4751 18.1466 14.4769C17.4935 14.4841 16.8403 14.4851 16.1871 14.4764C16.019 14.4741 15.9396 14.5422 15.88 14.6881C15.6365 15.2864 15.3847 15.8814 15.1361 16.4777C14.3571 18.3483 13.5782 20.2188 12.7997 22.0893C12.0573 23.8729 11.3154 25.6568 10.5728 27.4404C10.1026 28.5697 9.63134 29.6987 9.16038 30.8278C9.09604 30.982 9.14848 31.0592 9.3177 31.0593C10.2533 31.0593 11.1892 31.0596 12.1249 31.0593C12.3423 31.0593 12.3413 31.0576 12.4229 30.8519C12.9303 29.5751 13.4378 28.2984 13.9462 27.0219C14.0623 26.7305 14.064 26.7311 14.3877 26.7311C15.1163 26.7311 15.8448 26.7311 16.5732 26.7311C17.7224 26.7311 18.8717 26.7308 20.0209 26.7316C20.2539 26.7316 20.2657 26.7416 20.3539 26.9566C20.3635 26.9797 20.3718 27.0036 20.3811 27.0269C20.8902 28.3097 21.3991 29.5927 21.9088 30.8752C21.9797 31.0533 21.9895 31.0591 22.188 31.0593C22.6653 31.0603 23.1425 31.0596 23.62 31.0596ZM72.4897 22.7414C72.4897 24.7498 72.4897 26.7579 72.4897 28.7663C72.4897 29.4505 72.4889 30.1345 72.4904 30.8187C72.4909 31.0048 72.5095 31.0239 72.6972 31.0242C73.5577 31.0254 74.418 31.0257 75.2785 31.0242C75.4542 31.0239 75.4745 31.0021 75.4765 30.829C75.479 30.6095 75.4773 30.3897 75.4773 30.1699C75.4773 28.4566 75.4773 26.7431 75.4775 25.0298C75.4775 24.7462 75.4886 24.7359 75.7771 24.7352C76.1224 24.7342 76.468 24.7327 76.8133 24.7352C77.4094 24.74 78.003 24.7219 78.5936 24.6252C79.2671 24.5152 79.9147 24.3283 80.5192 24.009C81.5134 23.4841 82.2246 22.6976 82.641 21.6555C82.9481 20.8872 83.0524 20.0859 82.9911 19.2588C82.9632 18.8818 82.9164 18.5103 82.8222 18.1453C82.6106 17.3272 82.2261 16.6046 81.628 16.0008C81.0477 15.4148 80.3395 15.0528 79.5599 14.8142C78.7547 14.5675 77.9233 14.4952 77.0895 14.4846C75.6577 14.4666 74.2257 14.4796 72.794 14.4796C72.5911 14.4796 72.4896 14.5787 72.4894 14.7768C72.4894 17.4315 72.4897 20.0867 72.4897 22.7414ZM44.0718 24.2203C44.0718 26.404 44.0718 28.588 44.0718 30.7717C44.0718 31.0184 44.0778 31.0244 44.3263 31.0244C45.1489 31.0249 45.9714 31.0252 46.7942 31.0244C47.0126 31.0242 47.0272 31.0089 47.0282 30.7866C47.0297 30.4666 47.0287 30.1466 47.0287 29.8263C47.0287 25.7911 47.0287 21.7562 47.0287 17.7211C47.0287 17.3878 47.0297 17.3875 47.364 17.3873C48.2054 17.3873 49.0468 17.3878 49.8884 17.3867C50.1023 17.3867 50.1179 17.3724 50.1184 17.1645C50.1199 16.3424 50.1199 15.5203 50.1184 14.6981C50.1181 14.5 50.0983 14.4834 49.9028 14.4796C49.8839 14.4794 49.8651 14.4796 49.8462 14.4796C46.9827 14.4796 44.1192 14.4796 41.2558 14.4796C41.2118 14.4796 41.1678 14.4801 41.1238 14.4806C41.0334 14.4819 40.9828 14.5241 40.9818 14.6178C40.9813 14.6554 40.9806 14.6931 40.9806 14.7308C40.9806 15.5341 40.9806 16.3373 40.9806 17.1406C40.9806 17.1783 40.9811 17.2159 40.9821 17.2536C40.9843 17.336 41.0251 17.3822 41.1093 17.3852C41.1595 17.387 41.2098 17.3873 41.2598 17.3873C42.0886 17.3873 42.9175 17.3873 43.7465 17.3873C43.9623 17.3873 44.0704 17.4936 44.0707 17.7062C44.0707 19.8774 44.0707 22.0489 44.0707 24.22L44.0718 24.2203Z" fill="white"/>
<path d="M0 53.5977C0.0691115 53.4462 0.0665984 53.2795 0.0995206 53.1205C0.294038 52.1798 0.722027 51.3652 1.39505 50.677C2.13919 49.9157 3.03739 49.451 4.08235 49.2664C4.2731 49.2327 4.46636 49.2126 4.66214 49.2129C10.4914 49.2147 16.3204 49.2104 22.1496 49.2184C23.0991 49.2197 23.9596 49.5439 24.7301 50.0925C25.7311 50.8054 26.384 51.7606 26.6725 52.9574C26.7607 53.3239 26.8037 53.6979 26.8037 54.0757C26.804 55.9402 26.804 57.8044 26.8035 59.6689C26.8035 59.7812 26.8178 59.896 26.7597 60.001H0C0 57.8667 0 55.732 0 53.5977Z" fill="white"/>
<path d="M32.5254 60.0002C32.5209 59.9063 32.5124 59.8126 32.5124 59.7186C32.5116 57.8044 32.5061 55.8902 32.5139 53.9762C32.5184 52.8273 32.9122 51.8136 33.6498 50.9377C34.3201 50.1417 35.1642 49.611 36.1743 49.3513C36.5148 49.2636 36.8611 49.2129 37.2147 49.2129C43.005 49.2141 48.795 49.2136 54.5853 49.2136C55.2234 49.2136 55.8276 49.3656 56.4064 49.6246C57.346 50.045 58.0768 50.7044 58.6099 51.5812C58.97 52.1738 59.1867 52.8168 59.2646 53.5075C59.292 53.7517 59.2982 53.9953 59.2985 54.2397C59.2992 56.0597 59.299 57.8798 59.2985 59.6998C59.2985 59.8 59.2899 59.9 59.2854 60.0002H32.5254Z" fill="white"/>
<path d="M65.2404 60.0007C65.2359 59.9005 65.2273 59.8005 65.2273 59.7003C65.2266 57.7926 65.2273 55.8849 65.2266 53.9772C65.2263 53.0876 65.4721 52.267 65.9436 51.5179C66.6387 50.413 67.6203 49.6861 68.8867 49.3528C69.2393 49.2601 69.5982 49.2129 69.9646 49.2129C75.7104 49.2146 81.456 49.2154 87.2018 49.2129C88.0653 49.2124 88.866 49.4354 89.6011 49.8757C90.7209 50.5464 91.4714 51.5114 91.8333 52.7693C91.929 53.1016 91.98 53.4405 91.9793 53.7893C91.9747 55.7661 91.9773 57.7429 91.9768 59.7196C91.9768 59.8136 91.9838 59.908 91.9627 60.001L65.2404 60.0007Z" fill="white"/>
<path d="M66.0448 22.703C66.0629 23.7978 65.8309 24.7365 65.3434 25.6113C65.0318 26.1707 64.6236 26.6535 64.1559 27.087C63.6435 27.5617 63.06 27.9254 62.4055 28.1701C61.9635 28.3351 61.5066 28.4383 61.0364 28.4936C60.6225 28.5423 60.207 28.5463 59.7956 28.5172C58.8065 28.4474 57.8882 28.1457 57.0746 27.5703C56.322 27.0378 55.7025 26.3779 55.2531 25.5671C54.9299 24.9839 54.7316 24.3592 54.6397 23.7006C54.5912 23.353 54.558 23.0031 54.5683 22.6512C54.6115 21.1718 55.1172 19.8858 56.1649 18.8228C56.6959 18.284 57.2971 17.849 57.9932 17.5526C58.4737 17.3481 58.9741 17.2142 59.4961 17.1527C59.7391 17.1241 59.9831 17.1278 60.2261 17.0947C60.4679 17.0615 60.7142 17.1143 60.9567 17.1346C61.3621 17.1685 61.7619 17.2494 62.1522 17.374C62.9439 17.6264 63.6362 18.0446 64.2419 18.6085C64.7707 19.1008 65.2107 19.6602 65.5213 20.3163C65.7814 20.8656 65.9398 21.4423 66.0104 22.0461C66.0398 22.2966 66.0446 22.5462 66.0448 22.703Z" fill="white"/>
<path d="M31.2017 25.9712C31.2017 25.3689 31.2017 24.7665 31.2017 24.1645C31.2017 24.1079 31.2002 24.0512 31.2047 23.9952C31.2165 23.8545 31.2359 23.8306 31.3776 23.8304C32.1496 23.8289 32.9229 23.808 33.6937 23.8397C34.2363 23.862 34.7583 24.0072 35.2016 24.3533C35.605 24.6686 35.8146 25.0938 35.8869 25.5884C35.9249 25.8476 35.9387 26.1086 35.8993 26.3741C35.8058 27.0053 35.4748 27.4592 34.9224 27.7648C34.5474 27.9723 34.1393 28.0549 33.7206 28.1137C33.3386 28.1672 32.9566 28.1419 32.5744 28.1474C32.1976 28.1527 31.8209 28.1499 31.4444 28.1476C31.2306 28.1464 31.2039 28.1225 31.2029 27.9098C31.2004 27.2635 31.2017 26.6175 31.2017 25.9712Z" fill="white"/>
<path d="M31.2013 19.1629C31.2013 18.7047 31.2013 18.2466 31.2013 17.7884C31.2013 17.7382 31.2006 17.688 31.2023 17.6377C31.2094 17.4441 31.2267 17.425 31.4242 17.4245C31.9706 17.423 32.5172 17.4132 33.0633 17.428C33.4418 17.4383 33.81 17.5194 34.1437 17.7136C34.4714 17.9042 34.7054 18.1717 34.815 18.5395C34.9286 18.9203 34.9605 19.3063 34.8346 19.6876C34.68 20.1553 34.3518 20.475 33.9092 20.6745C33.6215 20.8043 33.3136 20.8556 32.998 20.8857C32.4961 20.9334 31.9947 20.904 31.4931 20.9149C31.4368 20.9161 31.38 20.9133 31.3237 20.9086C31.2589 20.9028 31.2202 20.8634 31.2124 20.8003C31.2046 20.7383 31.2018 20.6752 31.2018 20.6127C31.2011 20.1294 31.2013 19.6462 31.2013 19.1629Z" fill="white"/>
<path d="M17.156 23.8536C16.6287 23.8536 16.1012 23.8536 15.574 23.8536C15.5426 23.8536 15.5111 23.8538 15.4797 23.8533C15.2515 23.8488 15.2299 23.8222 15.3101 23.6149C15.6491 22.7376 15.9909 21.8615 16.3314 20.9846C16.5722 20.365 16.8119 19.7451 17.0545 19.1262C17.0786 19.0646 17.0871 18.9659 17.161 18.9629C17.2517 18.9591 17.2568 19.0656 17.2819 19.1304C17.8627 20.6202 18.4417 22.1104 19.0195 23.6014C19.1064 23.8257 19.0881 23.8518 18.8511 23.8526C18.2862 23.8543 17.7209 23.8533 17.156 23.8536Z" fill="white"/>
<path d="M75.4783 19.6255C75.4783 18.9857 75.4783 18.3457 75.4783 17.706C75.4783 17.6495 75.4801 17.5932 75.4806 17.5367C75.4813 17.4453 75.5273 17.3976 75.6186 17.3938C75.6688 17.3918 75.7188 17.39 75.7691 17.39C76.3466 17.3898 76.9241 17.381 77.5014 17.3928C77.9284 17.4013 78.3511 17.4606 78.7525 17.6181C79.4705 17.8997 79.8801 18.4254 79.9904 19.1882C80.0487 19.5908 80.0289 19.9877 79.9181 20.3793C79.7572 20.9477 79.3953 21.3423 78.8595 21.5771C78.5419 21.7163 78.2046 21.7874 77.8595 21.8225C77.1332 21.8964 76.4052 21.8419 75.6781 21.8549C75.5012 21.8582 75.4801 21.8296 75.4796 21.6389C75.4778 20.9678 75.4783 20.2966 75.4783 19.6255Z" fill="white"/>
</svg>
